G75*
%MOIN*%
%OFA0B0*%
%FSLAX25Y25*%
%IPPOS*%
%LPD*%
%AMOC8*
5,1,8,0,0,1.08239X$1,22.5*
%
%ADD10C,0.12611*%
%ADD11C,0.20485*%
%ADD12C,0.08200*%
%ADD13R,0.08200X0.08200*%
%ADD14OC8,0.08200*%
%ADD15R,0.04000X0.02400*%
%ADD16C,0.00500*%
%ADD17C,0.04369*%
D10*
X0044091Y0127043D03*
X0042123Y0162476D03*
X0044091Y0217594D03*
X0154327Y0164445D03*
X0235036Y0193972D03*
X0258658Y0115232D03*
X0237005Y0107358D03*
X0205509Y0087673D03*
X0341335Y0197909D03*
X0345272Y0221531D03*
D11*
X0091335Y0115232D03*
D12*
X0141144Y0050865D03*
X0141144Y0060865D03*
X0198760Y0050689D03*
X0208760Y0050689D03*
X0218760Y0050689D03*
X0228760Y0050689D03*
X0238760Y0050689D03*
X0277988Y0060705D03*
X0277988Y0070705D03*
X0277988Y0080705D03*
X0317177Y0105853D03*
X0327177Y0105853D03*
X0348559Y0105975D03*
X0348559Y0115975D03*
X0348559Y0125975D03*
X0348747Y0170278D03*
X0348747Y0180278D03*
X0348747Y0190278D03*
X0205927Y0242802D03*
X0195927Y0242802D03*
X0185927Y0242802D03*
X0175927Y0242802D03*
X0165927Y0242802D03*
X0155927Y0242802D03*
X0145927Y0242802D03*
X0135927Y0242802D03*
X0111904Y0258495D03*
X0101904Y0258495D03*
X0082604Y0258447D03*
X0072604Y0258447D03*
X0062604Y0258447D03*
X0052604Y0258447D03*
X0042604Y0258447D03*
X0042584Y0193258D03*
X0042584Y0183258D03*
X0042584Y0173258D03*
D13*
X0277988Y0050705D03*
X0348559Y0135975D03*
D14*
X0209317Y0203577D03*
X0199317Y0203577D03*
X0199317Y0213577D03*
X0209317Y0213577D03*
X0189317Y0213577D03*
X0189317Y0203577D03*
D15*
X0153540Y0203500D03*
X0153540Y0227122D03*
X0095981Y0229091D03*
X0095981Y0252713D03*
X0067477Y0187752D03*
X0067477Y0164130D03*
X0123068Y0162161D03*
X0123068Y0138539D03*
G36*
X0167482Y0087917D02*
X0170946Y0085917D01*
X0169746Y0083839D01*
X0166282Y0085839D01*
X0167482Y0087917D01*
G37*
G36*
X0198211Y0070132D02*
X0201675Y0068132D01*
X0200475Y0066054D01*
X0197011Y0068054D01*
X0198211Y0070132D01*
G37*
G36*
X0227517Y0088055D02*
X0230981Y0086055D01*
X0229781Y0083977D01*
X0226317Y0085977D01*
X0227517Y0088055D01*
G37*
G36*
X0258246Y0070270D02*
X0261710Y0068270D01*
X0260510Y0066192D01*
X0257046Y0068192D01*
X0258246Y0070270D01*
G37*
X0297949Y0109012D03*
X0297949Y0132634D03*
X0334249Y0146413D03*
X0334249Y0170035D03*
X0297871Y0183815D03*
X0297871Y0207437D03*
X0259524Y0170035D03*
X0259524Y0146413D03*
D16*
X0253225Y0145232D02*
X0265823Y0145232D01*
X0270154Y0149563D01*
X0272516Y0151925D01*
X0272516Y0164524D01*
X0272123Y0164917D01*
X0265823Y0171217D01*
X0253225Y0171217D01*
X0248107Y0166098D01*
X0246532Y0164524D01*
X0246532Y0151925D01*
X0249682Y0148776D01*
X0253225Y0145232D01*
X0252893Y0145564D02*
X0266155Y0145564D01*
X0266654Y0146062D02*
X0252395Y0146062D01*
X0251896Y0146561D02*
X0267152Y0146561D01*
X0267651Y0147059D02*
X0251398Y0147059D01*
X0250899Y0147558D02*
X0268149Y0147558D01*
X0268648Y0148056D02*
X0250401Y0148056D01*
X0249902Y0148555D02*
X0269146Y0148555D01*
X0269645Y0149054D02*
X0249404Y0149054D01*
X0248905Y0149552D02*
X0270143Y0149552D01*
X0270642Y0150051D02*
X0248407Y0150051D01*
X0247908Y0150549D02*
X0271140Y0150549D01*
X0271639Y0151048D02*
X0247410Y0151048D01*
X0246911Y0151546D02*
X0272137Y0151546D01*
X0272516Y0152045D02*
X0246532Y0152045D01*
X0246532Y0152543D02*
X0272516Y0152543D01*
X0272516Y0153042D02*
X0246532Y0153042D01*
X0246532Y0153540D02*
X0272516Y0153540D01*
X0272516Y0154039D02*
X0246532Y0154039D01*
X0246532Y0154537D02*
X0272516Y0154537D01*
X0272516Y0155036D02*
X0246532Y0155036D01*
X0246532Y0155534D02*
X0272516Y0155534D01*
X0272516Y0156033D02*
X0246532Y0156033D01*
X0246532Y0156531D02*
X0272516Y0156531D01*
X0272516Y0157030D02*
X0246532Y0157030D01*
X0246532Y0157528D02*
X0272516Y0157528D01*
X0272516Y0158027D02*
X0246532Y0158027D01*
X0246532Y0158525D02*
X0272516Y0158525D01*
X0272516Y0159024D02*
X0246532Y0159024D01*
X0246532Y0159522D02*
X0272516Y0159522D01*
X0272516Y0160021D02*
X0246532Y0160021D01*
X0246532Y0160519D02*
X0272516Y0160519D01*
X0272516Y0161018D02*
X0246532Y0161018D01*
X0246532Y0161516D02*
X0272516Y0161516D01*
X0272516Y0162015D02*
X0246532Y0162015D01*
X0246532Y0162513D02*
X0272516Y0162513D01*
X0272516Y0163012D02*
X0246532Y0163012D01*
X0246532Y0163510D02*
X0272516Y0163510D01*
X0272516Y0164009D02*
X0246532Y0164009D01*
X0246532Y0164507D02*
X0272516Y0164507D01*
X0272034Y0165006D02*
X0247014Y0165006D01*
X0247513Y0165504D02*
X0271536Y0165504D01*
X0271037Y0166003D02*
X0248011Y0166003D01*
X0248510Y0166501D02*
X0270539Y0166501D01*
X0270040Y0167000D02*
X0249008Y0167000D01*
X0249507Y0167498D02*
X0269542Y0167498D01*
X0269043Y0167997D02*
X0250005Y0167997D01*
X0250504Y0168495D02*
X0268545Y0168495D01*
X0268046Y0168994D02*
X0251002Y0168994D01*
X0251501Y0169492D02*
X0267548Y0169492D01*
X0267049Y0169991D02*
X0252000Y0169991D01*
X0252498Y0170490D02*
X0266551Y0170490D01*
X0266052Y0170988D02*
X0252997Y0170988D01*
X0284879Y0189327D02*
X0288028Y0186177D01*
X0291572Y0182634D01*
X0304170Y0182634D01*
X0308501Y0186965D01*
X0310863Y0189327D01*
X0310863Y0201925D01*
X0310469Y0202319D01*
X0304170Y0208618D01*
X0291572Y0208618D01*
X0286453Y0203500D01*
X0284879Y0201925D01*
X0284879Y0189327D01*
X0284879Y0189433D02*
X0310863Y0189433D01*
X0310863Y0189931D02*
X0284879Y0189931D01*
X0284879Y0190430D02*
X0310863Y0190430D01*
X0310863Y0190928D02*
X0284879Y0190928D01*
X0284879Y0191427D02*
X0310863Y0191427D01*
X0310863Y0191925D02*
X0284879Y0191925D01*
X0284879Y0192424D02*
X0310863Y0192424D01*
X0310863Y0192923D02*
X0284879Y0192923D01*
X0284879Y0193421D02*
X0310863Y0193421D01*
X0310863Y0193920D02*
X0284879Y0193920D01*
X0284879Y0194418D02*
X0310863Y0194418D01*
X0310863Y0194917D02*
X0284879Y0194917D01*
X0284879Y0195415D02*
X0310863Y0195415D01*
X0310863Y0195914D02*
X0284879Y0195914D01*
X0284879Y0196412D02*
X0310863Y0196412D01*
X0310863Y0196911D02*
X0284879Y0196911D01*
X0284879Y0197409D02*
X0310863Y0197409D01*
X0310863Y0197908D02*
X0284879Y0197908D01*
X0284879Y0198406D02*
X0310863Y0198406D01*
X0310863Y0198905D02*
X0284879Y0198905D01*
X0284879Y0199403D02*
X0310863Y0199403D01*
X0310863Y0199902D02*
X0284879Y0199902D01*
X0284879Y0200400D02*
X0310863Y0200400D01*
X0310863Y0200899D02*
X0284879Y0200899D01*
X0284879Y0201397D02*
X0310863Y0201397D01*
X0310863Y0201896D02*
X0284879Y0201896D01*
X0285348Y0202394D02*
X0310394Y0202394D01*
X0309895Y0202893D02*
X0285846Y0202893D01*
X0286345Y0203391D02*
X0309397Y0203391D01*
X0308898Y0203890D02*
X0286843Y0203890D01*
X0287342Y0204388D02*
X0308400Y0204388D01*
X0307901Y0204887D02*
X0287840Y0204887D01*
X0288339Y0205385D02*
X0307403Y0205385D01*
X0306904Y0205884D02*
X0288837Y0205884D01*
X0289336Y0206382D02*
X0306406Y0206382D01*
X0305907Y0206881D02*
X0289834Y0206881D01*
X0290333Y0207379D02*
X0305409Y0207379D01*
X0304910Y0207878D02*
X0290831Y0207878D01*
X0291330Y0208376D02*
X0304412Y0208376D01*
X0310471Y0188934D02*
X0285271Y0188934D01*
X0285769Y0188436D02*
X0309972Y0188436D01*
X0309473Y0187937D02*
X0286268Y0187937D01*
X0286766Y0187439D02*
X0308975Y0187439D01*
X0308476Y0186940D02*
X0287265Y0186940D01*
X0287764Y0186442D02*
X0307978Y0186442D01*
X0307479Y0185943D02*
X0288262Y0185943D01*
X0288761Y0185445D02*
X0306981Y0185445D01*
X0306482Y0184946D02*
X0289259Y0184946D01*
X0289758Y0184448D02*
X0305984Y0184448D01*
X0305485Y0183949D02*
X0290256Y0183949D01*
X0290755Y0183451D02*
X0304987Y0183451D01*
X0304488Y0182952D02*
X0291253Y0182952D01*
X0321257Y0164524D02*
X0321257Y0151925D01*
X0324406Y0148776D01*
X0327949Y0145232D01*
X0340548Y0145232D01*
X0344879Y0149563D01*
X0347241Y0151925D01*
X0347241Y0164524D01*
X0346847Y0164917D01*
X0340548Y0171217D01*
X0327949Y0171217D01*
X0322831Y0166098D01*
X0321257Y0164524D01*
X0321257Y0164507D02*
X0347241Y0164507D01*
X0347241Y0164009D02*
X0321257Y0164009D01*
X0321257Y0163510D02*
X0347241Y0163510D01*
X0347241Y0163012D02*
X0321257Y0163012D01*
X0321257Y0162513D02*
X0347241Y0162513D01*
X0347241Y0162015D02*
X0321257Y0162015D01*
X0321257Y0161516D02*
X0347241Y0161516D01*
X0347241Y0161018D02*
X0321257Y0161018D01*
X0321257Y0160519D02*
X0347241Y0160519D01*
X0347241Y0160021D02*
X0321257Y0160021D01*
X0321257Y0159522D02*
X0347241Y0159522D01*
X0347241Y0159024D02*
X0321257Y0159024D01*
X0321257Y0158525D02*
X0347241Y0158525D01*
X0347241Y0158027D02*
X0321257Y0158027D01*
X0321257Y0157528D02*
X0347241Y0157528D01*
X0347241Y0157030D02*
X0321257Y0157030D01*
X0321257Y0156531D02*
X0347241Y0156531D01*
X0347241Y0156033D02*
X0321257Y0156033D01*
X0321257Y0155534D02*
X0347241Y0155534D01*
X0347241Y0155036D02*
X0321257Y0155036D01*
X0321257Y0154537D02*
X0347241Y0154537D01*
X0347241Y0154039D02*
X0321257Y0154039D01*
X0321257Y0153540D02*
X0347241Y0153540D01*
X0347241Y0153042D02*
X0321257Y0153042D01*
X0321257Y0152543D02*
X0347241Y0152543D01*
X0347241Y0152045D02*
X0321257Y0152045D01*
X0321636Y0151546D02*
X0346862Y0151546D01*
X0346363Y0151048D02*
X0322134Y0151048D01*
X0322633Y0150549D02*
X0345865Y0150549D01*
X0345366Y0150051D02*
X0323131Y0150051D01*
X0323630Y0149552D02*
X0344868Y0149552D01*
X0344369Y0149054D02*
X0324128Y0149054D01*
X0324627Y0148555D02*
X0343871Y0148555D01*
X0343372Y0148056D02*
X0325125Y0148056D01*
X0325624Y0147558D02*
X0342874Y0147558D01*
X0342375Y0147059D02*
X0326122Y0147059D01*
X0326621Y0146561D02*
X0341877Y0146561D01*
X0341378Y0146062D02*
X0327119Y0146062D01*
X0327618Y0145564D02*
X0340880Y0145564D01*
X0346759Y0165006D02*
X0321739Y0165006D01*
X0322237Y0165504D02*
X0346260Y0165504D01*
X0345762Y0166003D02*
X0322736Y0166003D01*
X0323234Y0166501D02*
X0345263Y0166501D01*
X0344765Y0167000D02*
X0323733Y0167000D01*
X0324231Y0167498D02*
X0344266Y0167498D01*
X0343767Y0167997D02*
X0324730Y0167997D01*
X0325228Y0168495D02*
X0343269Y0168495D01*
X0342770Y0168994D02*
X0325727Y0168994D01*
X0326225Y0169492D02*
X0342272Y0169492D01*
X0341773Y0169991D02*
X0326724Y0169991D01*
X0327222Y0170490D02*
X0341275Y0170490D01*
X0340776Y0170988D02*
X0327721Y0170988D01*
X0304249Y0133815D02*
X0291650Y0133815D01*
X0286532Y0128697D01*
X0284957Y0127122D01*
X0284957Y0114524D01*
X0288107Y0111374D01*
X0291650Y0107831D01*
X0304249Y0107831D01*
X0308579Y0112161D01*
X0310942Y0114524D01*
X0310942Y0127122D01*
X0310548Y0127516D01*
X0304249Y0133815D01*
X0304464Y0133600D02*
X0291435Y0133600D01*
X0290936Y0133101D02*
X0304962Y0133101D01*
X0305461Y0132603D02*
X0290438Y0132603D01*
X0289939Y0132104D02*
X0305960Y0132104D01*
X0306458Y0131606D02*
X0289441Y0131606D01*
X0288942Y0131107D02*
X0306957Y0131107D01*
X0307455Y0130609D02*
X0288444Y0130609D01*
X0287945Y0130110D02*
X0307954Y0130110D01*
X0308452Y0129612D02*
X0287447Y0129612D01*
X0286948Y0129113D02*
X0308951Y0129113D01*
X0309449Y0128615D02*
X0286450Y0128615D01*
X0285951Y0128116D02*
X0309948Y0128116D01*
X0310446Y0127618D02*
X0285453Y0127618D01*
X0284957Y0127119D02*
X0310942Y0127119D01*
X0310942Y0126621D02*
X0284957Y0126621D01*
X0284957Y0126122D02*
X0310942Y0126122D01*
X0310942Y0125623D02*
X0284957Y0125623D01*
X0284957Y0125125D02*
X0310942Y0125125D01*
X0310942Y0124626D02*
X0284957Y0124626D01*
X0284957Y0124128D02*
X0310942Y0124128D01*
X0310942Y0123629D02*
X0284957Y0123629D01*
X0284957Y0123131D02*
X0310942Y0123131D01*
X0310942Y0122632D02*
X0284957Y0122632D01*
X0284957Y0122134D02*
X0310942Y0122134D01*
X0310942Y0121635D02*
X0284957Y0121635D01*
X0284957Y0121137D02*
X0310942Y0121137D01*
X0310942Y0120638D02*
X0284957Y0120638D01*
X0284957Y0120140D02*
X0310942Y0120140D01*
X0310942Y0119641D02*
X0284957Y0119641D01*
X0284957Y0119143D02*
X0310942Y0119143D01*
X0310942Y0118644D02*
X0284957Y0118644D01*
X0284957Y0118146D02*
X0310942Y0118146D01*
X0310942Y0117647D02*
X0284957Y0117647D01*
X0284957Y0117149D02*
X0310942Y0117149D01*
X0310942Y0116650D02*
X0284957Y0116650D01*
X0284957Y0116152D02*
X0310942Y0116152D01*
X0310942Y0115653D02*
X0284957Y0115653D01*
X0284957Y0115155D02*
X0310942Y0115155D01*
X0310942Y0114656D02*
X0284957Y0114656D01*
X0285323Y0114158D02*
X0310576Y0114158D01*
X0310077Y0113659D02*
X0285822Y0113659D01*
X0286320Y0113161D02*
X0309579Y0113161D01*
X0309080Y0112662D02*
X0286819Y0112662D01*
X0287317Y0112164D02*
X0308582Y0112164D01*
X0308083Y0111665D02*
X0287816Y0111665D01*
X0288314Y0111167D02*
X0307585Y0111167D01*
X0307086Y0110668D02*
X0288813Y0110668D01*
X0289311Y0110170D02*
X0306588Y0110170D01*
X0306089Y0109671D02*
X0289810Y0109671D01*
X0290308Y0109173D02*
X0305591Y0109173D01*
X0305092Y0108674D02*
X0290807Y0108674D01*
X0291305Y0108176D02*
X0304594Y0108176D01*
X0260341Y0072283D02*
X0257125Y0072283D01*
X0257413Y0072781D02*
X0259478Y0072781D01*
X0258614Y0073280D02*
X0257700Y0073280D01*
X0257929Y0073676D02*
X0255905Y0070170D01*
X0253998Y0066868D01*
X0257821Y0064661D01*
X0260862Y0062905D01*
X0263287Y0067106D01*
X0264792Y0069713D01*
X0261896Y0071385D01*
X0257929Y0073676D01*
X0256837Y0071784D02*
X0261205Y0071784D01*
X0262068Y0071286D02*
X0256549Y0071286D01*
X0256261Y0070787D02*
X0262932Y0070787D01*
X0263795Y0070289D02*
X0255973Y0070289D01*
X0255686Y0069790D02*
X0264658Y0069790D01*
X0264549Y0069292D02*
X0255398Y0069292D01*
X0255110Y0068793D02*
X0264262Y0068793D01*
X0263974Y0068295D02*
X0254822Y0068295D01*
X0254534Y0067796D02*
X0263686Y0067796D01*
X0263398Y0067298D02*
X0254247Y0067298D01*
X0254118Y0066799D02*
X0263110Y0066799D01*
X0262822Y0066301D02*
X0254981Y0066301D01*
X0255845Y0065802D02*
X0262535Y0065802D01*
X0262247Y0065304D02*
X0256708Y0065304D01*
X0257571Y0064805D02*
X0261959Y0064805D01*
X0261671Y0064307D02*
X0258435Y0064307D01*
X0259298Y0063808D02*
X0261383Y0063808D01*
X0261096Y0063310D02*
X0260162Y0063310D01*
X0258569Y0060817D02*
X0250510Y0060817D01*
X0250713Y0061167D02*
X0252512Y0064284D01*
X0255314Y0062666D01*
X0255926Y0062343D01*
X0259279Y0060407D01*
X0257230Y0056857D01*
X0255334Y0053573D01*
X0252560Y0055175D01*
X0248580Y0057473D01*
X0250713Y0061167D01*
X0250798Y0061316D02*
X0257705Y0061316D01*
X0256842Y0061814D02*
X0251086Y0061814D01*
X0251374Y0062313D02*
X0255978Y0062313D01*
X0255063Y0062811D02*
X0251662Y0062811D01*
X0251950Y0063310D02*
X0254199Y0063310D01*
X0253336Y0063808D02*
X0252237Y0063808D01*
X0249699Y0065304D02*
X0240520Y0065304D01*
X0240808Y0065802D02*
X0249893Y0065802D01*
X0249964Y0065761D02*
X0246664Y0067666D01*
X0243096Y0069726D01*
X0241422Y0066827D01*
X0241318Y0066686D01*
X0239132Y0062899D01*
X0242833Y0060762D01*
X0246016Y0058924D01*
X0248348Y0062963D01*
X0249964Y0065761D01*
X0249029Y0066301D02*
X0241096Y0066301D01*
X0241401Y0066799D02*
X0248166Y0066799D01*
X0247303Y0067298D02*
X0241694Y0067298D01*
X0241981Y0067796D02*
X0246439Y0067796D01*
X0245576Y0068295D02*
X0242269Y0068295D01*
X0242557Y0068793D02*
X0244712Y0068793D01*
X0243849Y0069292D02*
X0242845Y0069292D01*
X0244672Y0072253D02*
X0248233Y0070197D01*
X0251446Y0068342D01*
X0253888Y0072571D01*
X0255326Y0075062D01*
X0252055Y0076951D01*
X0252014Y0077013D01*
X0248569Y0079002D01*
X0246713Y0075787D01*
X0244672Y0072253D01*
X0244690Y0072283D02*
X0253722Y0072283D01*
X0254010Y0072781D02*
X0244977Y0072781D01*
X0245265Y0073280D02*
X0254297Y0073280D01*
X0254585Y0073778D02*
X0245553Y0073778D01*
X0245841Y0074277D02*
X0254873Y0074277D01*
X0255161Y0074775D02*
X0246129Y0074775D01*
X0246416Y0075274D02*
X0254960Y0075274D01*
X0254096Y0075772D02*
X0246704Y0075772D01*
X0246992Y0076271D02*
X0253233Y0076271D01*
X0252370Y0076769D02*
X0247280Y0076769D01*
X0247568Y0077268D02*
X0251573Y0077268D01*
X0250710Y0077766D02*
X0247855Y0077766D01*
X0248143Y0078265D02*
X0249846Y0078265D01*
X0248983Y0078763D02*
X0248431Y0078763D01*
X0243273Y0081754D02*
X0234071Y0081754D01*
X0233784Y0081256D02*
X0242985Y0081256D01*
X0242697Y0080757D02*
X0233496Y0080757D01*
X0233208Y0080259D02*
X0242410Y0080259D01*
X0242122Y0079760D02*
X0232920Y0079760D01*
X0232632Y0079262D02*
X0241834Y0079262D01*
X0241736Y0079092D02*
X0243458Y0082075D01*
X0240761Y0083632D01*
X0239713Y0084214D01*
X0236547Y0086042D01*
X0234863Y0083126D01*
X0232590Y0079188D01*
X0236945Y0076674D01*
X0239491Y0075204D01*
X0241736Y0079092D01*
X0241546Y0078763D02*
X0233326Y0078763D01*
X0234189Y0078265D02*
X0241258Y0078265D01*
X0240971Y0077766D02*
X0235053Y0077766D01*
X0235916Y0077268D02*
X0240683Y0077268D01*
X0240395Y0076769D02*
X0236779Y0076769D01*
X0237643Y0076271D02*
X0240107Y0076271D01*
X0239819Y0075772D02*
X0238506Y0075772D01*
X0239370Y0075274D02*
X0239531Y0075274D01*
X0238053Y0072674D02*
X0234796Y0074554D01*
X0231158Y0076654D01*
X0229602Y0073959D01*
X0229556Y0073879D01*
X0227164Y0069736D01*
X0230842Y0067612D01*
X0234058Y0065755D01*
X0236508Y0069999D01*
X0238053Y0072674D01*
X0237866Y0072781D02*
X0228922Y0072781D01*
X0228635Y0072283D02*
X0237827Y0072283D01*
X0237539Y0071784D02*
X0228347Y0071784D01*
X0228059Y0071286D02*
X0237251Y0071286D01*
X0236964Y0070787D02*
X0227771Y0070787D01*
X0227483Y0070289D02*
X0236676Y0070289D01*
X0236388Y0069790D02*
X0227195Y0069790D01*
X0227933Y0069292D02*
X0236100Y0069292D01*
X0235812Y0068793D02*
X0228797Y0068793D01*
X0229660Y0068295D02*
X0235524Y0068295D01*
X0235237Y0067796D02*
X0230524Y0067796D01*
X0231387Y0067298D02*
X0234949Y0067298D01*
X0234661Y0066799D02*
X0232251Y0066799D01*
X0233114Y0066301D02*
X0234373Y0066301D01*
X0234085Y0065802D02*
X0233978Y0065802D01*
X0239369Y0063310D02*
X0248548Y0063310D01*
X0248836Y0063808D02*
X0239657Y0063808D01*
X0239944Y0064307D02*
X0249124Y0064307D01*
X0249411Y0064805D02*
X0240232Y0064805D01*
X0239284Y0062811D02*
X0248260Y0062811D01*
X0247972Y0062313D02*
X0240147Y0062313D01*
X0241011Y0061814D02*
X0247685Y0061814D01*
X0247397Y0061316D02*
X0241874Y0061316D01*
X0242738Y0060817D02*
X0247109Y0060817D01*
X0246821Y0060319D02*
X0243601Y0060319D01*
X0244464Y0059820D02*
X0246533Y0059820D01*
X0246245Y0059321D02*
X0245328Y0059321D01*
X0248784Y0057826D02*
X0257790Y0057826D01*
X0258077Y0058324D02*
X0249071Y0058324D01*
X0249359Y0058823D02*
X0258365Y0058823D01*
X0258653Y0059321D02*
X0249647Y0059321D01*
X0249935Y0059820D02*
X0258941Y0059820D01*
X0259229Y0060319D02*
X0250223Y0060319D01*
X0248831Y0057327D02*
X0257502Y0057327D01*
X0257214Y0056829D02*
X0249695Y0056829D01*
X0250558Y0056330D02*
X0256926Y0056330D01*
X0256638Y0055832D02*
X0251422Y0055832D01*
X0252285Y0055333D02*
X0256350Y0055333D01*
X0256063Y0054835D02*
X0253149Y0054835D01*
X0254012Y0054336D02*
X0255775Y0054336D01*
X0255487Y0053838D02*
X0254876Y0053838D01*
X0251707Y0068793D02*
X0250664Y0068793D01*
X0249800Y0069292D02*
X0251995Y0069292D01*
X0252283Y0069790D02*
X0248937Y0069790D01*
X0248074Y0070289D02*
X0252570Y0070289D01*
X0252858Y0070787D02*
X0247210Y0070787D01*
X0246347Y0071286D02*
X0253146Y0071286D01*
X0253434Y0071784D02*
X0245483Y0071784D01*
X0237003Y0073280D02*
X0229210Y0073280D01*
X0229498Y0073778D02*
X0236139Y0073778D01*
X0235276Y0074277D02*
X0229786Y0074277D01*
X0230074Y0074775D02*
X0234412Y0074775D01*
X0233549Y0075274D02*
X0230361Y0075274D01*
X0230649Y0075772D02*
X0232686Y0075772D01*
X0231822Y0076271D02*
X0230937Y0076271D01*
X0228486Y0077766D02*
X0219320Y0077766D01*
X0219032Y0077268D02*
X0228199Y0077268D01*
X0227911Y0076769D02*
X0218744Y0076769D01*
X0218456Y0076271D02*
X0227623Y0076271D01*
X0227483Y0076028D02*
X0228640Y0078032D01*
X0225576Y0079801D01*
X0225477Y0079891D01*
X0221779Y0082026D01*
X0220120Y0079152D01*
X0217861Y0075240D01*
X0221263Y0073277D01*
X0224736Y0071271D01*
X0227483Y0076028D01*
X0227335Y0075772D02*
X0218168Y0075772D01*
X0217881Y0075274D02*
X0227047Y0075274D01*
X0226759Y0074775D02*
X0218667Y0074775D01*
X0219530Y0074277D02*
X0226472Y0074277D01*
X0226184Y0073778D02*
X0220393Y0073778D01*
X0221257Y0073280D02*
X0225896Y0073280D01*
X0225608Y0072781D02*
X0222120Y0072781D01*
X0222984Y0072283D02*
X0225320Y0072283D01*
X0225033Y0071784D02*
X0223847Y0071784D01*
X0224711Y0071286D02*
X0224745Y0071286D01*
X0228237Y0078265D02*
X0219608Y0078265D01*
X0219895Y0078763D02*
X0227373Y0078763D01*
X0226510Y0079262D02*
X0220183Y0079262D01*
X0220471Y0079760D02*
X0225646Y0079760D01*
X0224839Y0080259D02*
X0220759Y0080259D01*
X0221047Y0080757D02*
X0223976Y0080757D01*
X0223112Y0081256D02*
X0221334Y0081256D01*
X0221622Y0081754D02*
X0222249Y0081754D01*
X0223944Y0084247D02*
X0232183Y0084247D01*
X0231896Y0083749D02*
X0224807Y0083749D01*
X0225671Y0083250D02*
X0231608Y0083250D01*
X0231320Y0082752D02*
X0226534Y0082752D01*
X0227092Y0082430D02*
X0230124Y0080679D01*
X0232755Y0085237D01*
X0234061Y0087500D01*
X0230829Y0089366D01*
X0230823Y0089280D01*
X0227155Y0091397D01*
X0225772Y0089001D01*
X0223256Y0084644D01*
X0227092Y0082430D01*
X0227398Y0082253D02*
X0231032Y0082253D01*
X0230744Y0081754D02*
X0228261Y0081754D01*
X0229125Y0081256D02*
X0230457Y0081256D01*
X0230169Y0080757D02*
X0229988Y0080757D01*
X0234359Y0082253D02*
X0243149Y0082253D01*
X0242285Y0082752D02*
X0234647Y0082752D01*
X0234935Y0083250D02*
X0241422Y0083250D01*
X0240551Y0083749D02*
X0235223Y0083749D01*
X0235511Y0084247D02*
X0239656Y0084247D01*
X0238793Y0084746D02*
X0235798Y0084746D01*
X0236086Y0085244D02*
X0237929Y0085244D01*
X0237066Y0085743D02*
X0236374Y0085743D01*
X0233910Y0087238D02*
X0224754Y0087238D01*
X0224466Y0086740D02*
X0233623Y0086740D01*
X0233335Y0086241D02*
X0224178Y0086241D01*
X0223890Y0085743D02*
X0233047Y0085743D01*
X0232759Y0085244D02*
X0223603Y0085244D01*
X0223315Y0084746D02*
X0232471Y0084746D01*
X0233651Y0087737D02*
X0225042Y0087737D01*
X0225329Y0088235D02*
X0232787Y0088235D01*
X0231924Y0088734D02*
X0225617Y0088734D01*
X0225905Y0089232D02*
X0231060Y0089232D01*
X0230042Y0089731D02*
X0226193Y0089731D01*
X0226481Y0090229D02*
X0229179Y0090229D01*
X0228315Y0090728D02*
X0226769Y0090728D01*
X0227056Y0091226D02*
X0227452Y0091226D01*
X0204758Y0069575D02*
X0201862Y0071247D01*
X0197894Y0073538D01*
X0195870Y0070032D01*
X0193964Y0066730D01*
X0197786Y0064523D01*
X0200827Y0062767D01*
X0203252Y0066968D01*
X0204758Y0069575D01*
X0204594Y0069292D02*
X0195443Y0069292D01*
X0195730Y0069790D02*
X0204385Y0069790D01*
X0203521Y0070289D02*
X0196018Y0070289D01*
X0196306Y0070787D02*
X0202658Y0070787D01*
X0201794Y0071286D02*
X0196594Y0071286D01*
X0196882Y0071784D02*
X0200931Y0071784D01*
X0200067Y0072283D02*
X0197169Y0072283D01*
X0197457Y0072781D02*
X0199204Y0072781D01*
X0198340Y0073280D02*
X0197745Y0073280D01*
X0195206Y0074775D02*
X0186173Y0074775D01*
X0185886Y0074277D02*
X0194918Y0074277D01*
X0194630Y0073778D02*
X0185598Y0073778D01*
X0185310Y0073280D02*
X0194342Y0073280D01*
X0194054Y0072781D02*
X0185022Y0072781D01*
X0184734Y0072283D02*
X0193767Y0072283D01*
X0193853Y0072433D02*
X0195292Y0074924D01*
X0192020Y0076813D01*
X0191979Y0076875D01*
X0188534Y0078864D01*
X0186678Y0075649D01*
X0184637Y0072115D01*
X0188198Y0070059D01*
X0191411Y0068204D01*
X0193853Y0072433D01*
X0193479Y0071784D02*
X0185209Y0071784D01*
X0186073Y0071286D02*
X0193191Y0071286D01*
X0192903Y0070787D02*
X0186936Y0070787D01*
X0187800Y0070289D02*
X0192615Y0070289D01*
X0192327Y0069790D02*
X0188663Y0069790D01*
X0189527Y0069292D02*
X0192040Y0069292D01*
X0191752Y0068793D02*
X0190390Y0068793D01*
X0191253Y0068295D02*
X0191464Y0068295D01*
X0194004Y0066799D02*
X0203155Y0066799D01*
X0202867Y0066301D02*
X0194707Y0066301D01*
X0195571Y0065802D02*
X0202579Y0065802D01*
X0202292Y0065304D02*
X0196434Y0065304D01*
X0197298Y0064805D02*
X0202004Y0064805D01*
X0201716Y0064307D02*
X0198161Y0064307D01*
X0199024Y0063808D02*
X0201428Y0063808D01*
X0201140Y0063310D02*
X0199888Y0063310D01*
X0200751Y0062811D02*
X0200853Y0062811D01*
X0199245Y0060269D02*
X0197195Y0056719D01*
X0195299Y0053435D01*
X0192525Y0055037D01*
X0188545Y0057335D01*
X0190678Y0061029D01*
X0192477Y0064146D01*
X0195279Y0062528D01*
X0195892Y0062205D01*
X0199245Y0060269D01*
X0199158Y0060319D02*
X0190267Y0060319D01*
X0190555Y0060817D02*
X0198295Y0060817D01*
X0197431Y0061316D02*
X0190843Y0061316D01*
X0191131Y0061814D02*
X0196568Y0061814D01*
X0195687Y0062313D02*
X0191419Y0062313D01*
X0191707Y0062811D02*
X0194789Y0062811D01*
X0193925Y0063310D02*
X0191994Y0063310D01*
X0192282Y0063808D02*
X0193062Y0063808D01*
X0189929Y0065623D02*
X0186629Y0067528D01*
X0183061Y0069588D01*
X0181387Y0066689D01*
X0181283Y0066548D01*
X0179097Y0062761D01*
X0182799Y0060624D01*
X0185981Y0058786D01*
X0188313Y0062825D01*
X0189929Y0065623D01*
X0189619Y0065802D02*
X0180853Y0065802D01*
X0181140Y0066301D02*
X0188755Y0066301D01*
X0187892Y0066799D02*
X0181451Y0066799D01*
X0181738Y0067298D02*
X0187029Y0067298D01*
X0186165Y0067796D02*
X0182026Y0067796D01*
X0182314Y0068295D02*
X0185302Y0068295D01*
X0184438Y0068793D02*
X0182602Y0068793D01*
X0182890Y0069292D02*
X0183575Y0069292D01*
X0178018Y0072536D02*
X0174762Y0074416D01*
X0171123Y0076516D01*
X0169568Y0073821D01*
X0169521Y0073741D01*
X0167129Y0069598D01*
X0170808Y0067474D01*
X0174024Y0065617D01*
X0176473Y0069861D01*
X0178018Y0072536D01*
X0177872Y0072283D02*
X0168679Y0072283D01*
X0168967Y0072781D02*
X0177592Y0072781D01*
X0177584Y0071784D02*
X0168392Y0071784D01*
X0168104Y0071286D02*
X0177296Y0071286D01*
X0177008Y0070787D02*
X0167816Y0070787D01*
X0167528Y0070289D02*
X0176720Y0070289D01*
X0176433Y0069790D02*
X0167240Y0069790D01*
X0167659Y0069292D02*
X0176145Y0069292D01*
X0175857Y0068793D02*
X0168523Y0068793D01*
X0169386Y0068295D02*
X0175569Y0068295D01*
X0175281Y0067796D02*
X0170250Y0067796D01*
X0171113Y0067298D02*
X0174994Y0067298D01*
X0174706Y0066799D02*
X0171977Y0066799D01*
X0172840Y0066301D02*
X0174418Y0066301D01*
X0174130Y0065802D02*
X0173704Y0065802D01*
X0179126Y0062811D02*
X0188305Y0062811D01*
X0188017Y0062313D02*
X0179873Y0062313D01*
X0180737Y0061814D02*
X0187729Y0061814D01*
X0187442Y0061316D02*
X0181600Y0061316D01*
X0182464Y0060817D02*
X0187154Y0060817D01*
X0186866Y0060319D02*
X0183327Y0060319D01*
X0184191Y0059820D02*
X0186578Y0059820D01*
X0186290Y0059321D02*
X0185054Y0059321D01*
X0185917Y0058823D02*
X0186002Y0058823D01*
X0188558Y0057327D02*
X0197546Y0057327D01*
X0197259Y0056829D02*
X0189421Y0056829D01*
X0190284Y0056330D02*
X0196971Y0056330D01*
X0196683Y0055832D02*
X0191148Y0055832D01*
X0192011Y0055333D02*
X0196395Y0055333D01*
X0196107Y0054835D02*
X0192875Y0054835D01*
X0193738Y0054336D02*
X0195820Y0054336D01*
X0195532Y0053838D02*
X0194602Y0053838D01*
X0197834Y0057826D02*
X0188828Y0057826D01*
X0189116Y0058324D02*
X0198122Y0058324D01*
X0198410Y0058823D02*
X0189404Y0058823D01*
X0189692Y0059321D02*
X0198698Y0059321D01*
X0198986Y0059820D02*
X0189980Y0059820D01*
X0188593Y0063310D02*
X0179414Y0063310D01*
X0179701Y0063808D02*
X0188881Y0063808D01*
X0189168Y0064307D02*
X0179989Y0064307D01*
X0180277Y0064805D02*
X0189456Y0064805D01*
X0189744Y0065304D02*
X0180565Y0065304D01*
X0176729Y0073280D02*
X0169255Y0073280D01*
X0169543Y0073778D02*
X0175865Y0073778D01*
X0175002Y0074277D02*
X0169831Y0074277D01*
X0170118Y0074775D02*
X0174139Y0074775D01*
X0173275Y0075274D02*
X0170406Y0075274D01*
X0170694Y0075772D02*
X0172412Y0075772D01*
X0171548Y0076271D02*
X0170982Y0076271D01*
X0168531Y0077766D02*
X0159365Y0077766D01*
X0159077Y0077268D02*
X0168243Y0077268D01*
X0167956Y0076769D02*
X0158789Y0076769D01*
X0158501Y0076271D02*
X0167668Y0076271D01*
X0167448Y0075890D02*
X0168605Y0077894D01*
X0165541Y0079663D01*
X0165442Y0079753D01*
X0161744Y0081888D01*
X0160085Y0079014D01*
X0157826Y0075102D01*
X0161228Y0073139D01*
X0164701Y0071133D01*
X0167448Y0075890D01*
X0167380Y0075772D02*
X0158213Y0075772D01*
X0157925Y0075274D02*
X0167092Y0075274D01*
X0166804Y0074775D02*
X0158393Y0074775D01*
X0159256Y0074277D02*
X0166516Y0074277D01*
X0166229Y0073778D02*
X0160120Y0073778D01*
X0160983Y0073280D02*
X0165941Y0073280D01*
X0165653Y0072781D02*
X0161846Y0072781D01*
X0162710Y0072283D02*
X0165365Y0072283D01*
X0165077Y0071784D02*
X0163573Y0071784D01*
X0164437Y0071286D02*
X0164790Y0071286D01*
X0167963Y0078265D02*
X0159652Y0078265D01*
X0159940Y0078763D02*
X0167099Y0078763D01*
X0166236Y0079262D02*
X0160228Y0079262D01*
X0160516Y0079760D02*
X0165429Y0079760D01*
X0164565Y0080259D02*
X0160804Y0080259D01*
X0161091Y0080757D02*
X0163702Y0080757D01*
X0162838Y0081256D02*
X0161379Y0081256D01*
X0161667Y0081754D02*
X0161975Y0081754D01*
X0163670Y0084247D02*
X0172228Y0084247D01*
X0171940Y0083749D02*
X0164533Y0083749D01*
X0165397Y0083250D02*
X0171653Y0083250D01*
X0171365Y0082752D02*
X0166260Y0082752D01*
X0167057Y0082292D02*
X0170089Y0080541D01*
X0172720Y0085099D01*
X0174026Y0087362D01*
X0170794Y0089228D01*
X0170789Y0089142D01*
X0167120Y0091259D01*
X0165737Y0088863D01*
X0163221Y0084506D01*
X0167057Y0082292D01*
X0167124Y0082253D02*
X0171077Y0082253D01*
X0170789Y0081754D02*
X0167987Y0081754D01*
X0168851Y0081256D02*
X0170501Y0081256D01*
X0170214Y0080757D02*
X0169714Y0080757D01*
X0172555Y0079050D02*
X0176910Y0076536D01*
X0179456Y0075066D01*
X0181701Y0078954D01*
X0183423Y0081937D01*
X0180726Y0083494D01*
X0179678Y0084076D01*
X0176512Y0085904D01*
X0174829Y0082988D01*
X0172555Y0079050D01*
X0172677Y0079262D02*
X0181879Y0079262D01*
X0182167Y0079760D02*
X0172965Y0079760D01*
X0173253Y0080259D02*
X0182454Y0080259D01*
X0182742Y0080757D02*
X0173541Y0080757D01*
X0173828Y0081256D02*
X0183030Y0081256D01*
X0183318Y0081754D02*
X0174116Y0081754D01*
X0174404Y0082253D02*
X0182875Y0082253D01*
X0182011Y0082752D02*
X0174692Y0082752D01*
X0174980Y0083250D02*
X0181148Y0083250D01*
X0180268Y0083749D02*
X0175268Y0083749D01*
X0175555Y0084247D02*
X0179382Y0084247D01*
X0178519Y0084746D02*
X0175843Y0084746D01*
X0176131Y0085244D02*
X0177655Y0085244D01*
X0176792Y0085743D02*
X0176419Y0085743D01*
X0173955Y0087238D02*
X0164799Y0087238D01*
X0165086Y0087737D02*
X0173377Y0087737D01*
X0172513Y0088235D02*
X0165374Y0088235D01*
X0165662Y0088734D02*
X0171650Y0088734D01*
X0170632Y0089232D02*
X0165950Y0089232D01*
X0166238Y0089731D02*
X0169768Y0089731D01*
X0168905Y0090229D02*
X0166526Y0090229D01*
X0166813Y0090728D02*
X0168041Y0090728D01*
X0167178Y0091226D02*
X0167101Y0091226D01*
X0164511Y0086740D02*
X0173667Y0086740D01*
X0173380Y0086241D02*
X0164223Y0086241D01*
X0163935Y0085743D02*
X0173092Y0085743D01*
X0172804Y0085244D02*
X0163647Y0085244D01*
X0163360Y0084746D02*
X0172516Y0084746D01*
X0173052Y0078763D02*
X0181591Y0078763D01*
X0181303Y0078265D02*
X0173915Y0078265D01*
X0174779Y0077766D02*
X0181015Y0077766D01*
X0180728Y0077268D02*
X0175642Y0077268D01*
X0176506Y0076769D02*
X0180440Y0076769D01*
X0180152Y0076271D02*
X0177369Y0076271D01*
X0178232Y0075772D02*
X0179864Y0075772D01*
X0179576Y0075274D02*
X0179096Y0075274D01*
X0186461Y0075274D02*
X0194686Y0075274D01*
X0193823Y0075772D02*
X0186749Y0075772D01*
X0187037Y0076271D02*
X0192959Y0076271D01*
X0192096Y0076769D02*
X0187325Y0076769D01*
X0187612Y0077268D02*
X0191299Y0077268D01*
X0190436Y0077766D02*
X0187900Y0077766D01*
X0188188Y0078265D02*
X0189572Y0078265D01*
X0188709Y0078763D02*
X0188476Y0078763D01*
X0195155Y0068793D02*
X0204306Y0068793D01*
X0204019Y0068295D02*
X0194867Y0068295D01*
X0194579Y0067796D02*
X0203731Y0067796D01*
X0203443Y0067298D02*
X0194291Y0067298D01*
X0129367Y0137358D02*
X0116768Y0137358D01*
X0113225Y0140902D01*
X0110075Y0144051D01*
X0110075Y0156650D01*
X0111650Y0158224D01*
X0116768Y0163343D01*
X0129367Y0163343D01*
X0135666Y0157043D01*
X0136060Y0156650D01*
X0136060Y0144051D01*
X0133698Y0141689D01*
X0129367Y0137358D01*
X0129596Y0137588D02*
X0116539Y0137588D01*
X0116040Y0138086D02*
X0130095Y0138086D01*
X0130593Y0138585D02*
X0115542Y0138585D01*
X0115043Y0139083D02*
X0131092Y0139083D01*
X0131590Y0139582D02*
X0114545Y0139582D01*
X0114046Y0140080D02*
X0132089Y0140080D01*
X0132587Y0140579D02*
X0113548Y0140579D01*
X0113049Y0141077D02*
X0133086Y0141077D01*
X0133584Y0141576D02*
X0112551Y0141576D01*
X0112052Y0142074D02*
X0134083Y0142074D01*
X0134581Y0142573D02*
X0111554Y0142573D01*
X0111055Y0143071D02*
X0135080Y0143071D01*
X0135578Y0143570D02*
X0110557Y0143570D01*
X0110075Y0144068D02*
X0136060Y0144068D01*
X0136060Y0144567D02*
X0110075Y0144567D01*
X0110075Y0145065D02*
X0136060Y0145065D01*
X0136060Y0145564D02*
X0110075Y0145564D01*
X0110075Y0146062D02*
X0136060Y0146062D01*
X0136060Y0146561D02*
X0110075Y0146561D01*
X0110075Y0147059D02*
X0136060Y0147059D01*
X0136060Y0147558D02*
X0110075Y0147558D01*
X0110075Y0148056D02*
X0136060Y0148056D01*
X0136060Y0148555D02*
X0110075Y0148555D01*
X0110075Y0149054D02*
X0136060Y0149054D01*
X0136060Y0149552D02*
X0110075Y0149552D01*
X0110075Y0150051D02*
X0136060Y0150051D01*
X0136060Y0150549D02*
X0110075Y0150549D01*
X0110075Y0151048D02*
X0136060Y0151048D01*
X0136060Y0151546D02*
X0110075Y0151546D01*
X0110075Y0152045D02*
X0136060Y0152045D01*
X0136060Y0152543D02*
X0110075Y0152543D01*
X0110075Y0153042D02*
X0136060Y0153042D01*
X0136060Y0153540D02*
X0110075Y0153540D01*
X0110075Y0154039D02*
X0136060Y0154039D01*
X0136060Y0154537D02*
X0110075Y0154537D01*
X0110075Y0155036D02*
X0136060Y0155036D01*
X0136060Y0155534D02*
X0110075Y0155534D01*
X0110075Y0156033D02*
X0136060Y0156033D01*
X0136060Y0156531D02*
X0110075Y0156531D01*
X0110456Y0157030D02*
X0135680Y0157030D01*
X0135181Y0157528D02*
X0110954Y0157528D01*
X0111453Y0158027D02*
X0134683Y0158027D01*
X0134184Y0158525D02*
X0111951Y0158525D01*
X0112450Y0159024D02*
X0133686Y0159024D01*
X0133187Y0159522D02*
X0112948Y0159522D01*
X0113447Y0160021D02*
X0132689Y0160021D01*
X0132190Y0160519D02*
X0113945Y0160519D01*
X0114444Y0161018D02*
X0131692Y0161018D01*
X0131193Y0161516D02*
X0114942Y0161516D01*
X0115441Y0162015D02*
X0130695Y0162015D01*
X0130196Y0162513D02*
X0115939Y0162513D01*
X0116438Y0163012D02*
X0129697Y0163012D01*
X0147241Y0202319D02*
X0159839Y0202319D01*
X0164170Y0206650D01*
X0166532Y0209012D01*
X0166532Y0221610D01*
X0166138Y0222004D01*
X0159839Y0228303D01*
X0147241Y0228303D01*
X0142123Y0223185D01*
X0140548Y0221610D01*
X0140548Y0209012D01*
X0143698Y0205862D01*
X0147241Y0202319D01*
X0147165Y0202394D02*
X0159915Y0202394D01*
X0160413Y0202893D02*
X0146667Y0202893D01*
X0146168Y0203391D02*
X0160912Y0203391D01*
X0161410Y0203890D02*
X0145670Y0203890D01*
X0145171Y0204388D02*
X0161909Y0204388D01*
X0162407Y0204887D02*
X0144673Y0204887D01*
X0144174Y0205385D02*
X0162906Y0205385D01*
X0163404Y0205884D02*
X0143676Y0205884D01*
X0143177Y0206382D02*
X0163903Y0206382D01*
X0164401Y0206881D02*
X0142679Y0206881D01*
X0142180Y0207379D02*
X0164900Y0207379D01*
X0165398Y0207878D02*
X0141682Y0207878D01*
X0141183Y0208376D02*
X0165897Y0208376D01*
X0166395Y0208875D02*
X0140685Y0208875D01*
X0140548Y0209373D02*
X0166532Y0209373D01*
X0166532Y0209872D02*
X0140548Y0209872D01*
X0140548Y0210370D02*
X0166532Y0210370D01*
X0166532Y0210869D02*
X0140548Y0210869D01*
X0140548Y0211367D02*
X0166532Y0211367D01*
X0166532Y0211866D02*
X0140548Y0211866D01*
X0140548Y0212364D02*
X0166532Y0212364D01*
X0166532Y0212863D02*
X0140548Y0212863D01*
X0140548Y0213361D02*
X0166532Y0213361D01*
X0166532Y0213860D02*
X0140548Y0213860D01*
X0140548Y0214359D02*
X0166532Y0214359D01*
X0166532Y0214857D02*
X0140548Y0214857D01*
X0140548Y0215356D02*
X0166532Y0215356D01*
X0166532Y0215854D02*
X0140548Y0215854D01*
X0140548Y0216353D02*
X0166532Y0216353D01*
X0166532Y0216851D02*
X0140548Y0216851D01*
X0140548Y0217350D02*
X0166532Y0217350D01*
X0166532Y0217848D02*
X0140548Y0217848D01*
X0140548Y0218347D02*
X0166532Y0218347D01*
X0166532Y0218845D02*
X0140548Y0218845D01*
X0140548Y0219344D02*
X0166532Y0219344D01*
X0166532Y0219842D02*
X0140548Y0219842D01*
X0140548Y0220341D02*
X0166532Y0220341D01*
X0166532Y0220839D02*
X0140548Y0220839D01*
X0140548Y0221338D02*
X0166532Y0221338D01*
X0166306Y0221836D02*
X0140774Y0221836D01*
X0141272Y0222335D02*
X0165808Y0222335D01*
X0165309Y0222833D02*
X0141771Y0222833D01*
X0142269Y0223332D02*
X0164811Y0223332D01*
X0164312Y0223830D02*
X0142768Y0223830D01*
X0143266Y0224329D02*
X0163814Y0224329D01*
X0163315Y0224827D02*
X0143765Y0224827D01*
X0144263Y0225326D02*
X0162817Y0225326D01*
X0162318Y0225824D02*
X0144762Y0225824D01*
X0145260Y0226323D02*
X0161820Y0226323D01*
X0161321Y0226821D02*
X0145759Y0226821D01*
X0146257Y0227320D02*
X0160823Y0227320D01*
X0160324Y0227818D02*
X0146756Y0227818D01*
X0108973Y0234602D02*
X0108973Y0247201D01*
X0108579Y0247594D01*
X0102280Y0253894D01*
X0089682Y0253894D01*
X0084564Y0248776D01*
X0082989Y0247201D01*
X0082989Y0234602D01*
X0086138Y0231453D01*
X0089682Y0227909D01*
X0102280Y0227909D01*
X0106611Y0232240D01*
X0108973Y0234602D01*
X0108973Y0234797D02*
X0082989Y0234797D01*
X0082989Y0235296D02*
X0108973Y0235296D01*
X0108973Y0235794D02*
X0082989Y0235794D01*
X0082989Y0236293D02*
X0108973Y0236293D01*
X0108973Y0236792D02*
X0082989Y0236792D01*
X0082989Y0237290D02*
X0108973Y0237290D01*
X0108973Y0237789D02*
X0082989Y0237789D01*
X0082989Y0238287D02*
X0108973Y0238287D01*
X0108973Y0238786D02*
X0082989Y0238786D01*
X0082989Y0239284D02*
X0108973Y0239284D01*
X0108973Y0239783D02*
X0082989Y0239783D01*
X0082989Y0240281D02*
X0108973Y0240281D01*
X0108973Y0240780D02*
X0082989Y0240780D01*
X0082989Y0241278D02*
X0108973Y0241278D01*
X0108973Y0241777D02*
X0082989Y0241777D01*
X0082989Y0242275D02*
X0108973Y0242275D01*
X0108973Y0242774D02*
X0082989Y0242774D01*
X0082989Y0243272D02*
X0108973Y0243272D01*
X0108973Y0243771D02*
X0082989Y0243771D01*
X0082989Y0244269D02*
X0108973Y0244269D01*
X0108973Y0244768D02*
X0082989Y0244768D01*
X0082989Y0245266D02*
X0108973Y0245266D01*
X0108973Y0245765D02*
X0082989Y0245765D01*
X0082989Y0246263D02*
X0108973Y0246263D01*
X0108973Y0246762D02*
X0082989Y0246762D01*
X0083048Y0247260D02*
X0108914Y0247260D01*
X0108415Y0247759D02*
X0083547Y0247759D01*
X0084045Y0248257D02*
X0107917Y0248257D01*
X0107418Y0248756D02*
X0084544Y0248756D01*
X0085042Y0249254D02*
X0106920Y0249254D01*
X0106421Y0249753D02*
X0085541Y0249753D01*
X0086039Y0250251D02*
X0105923Y0250251D01*
X0105424Y0250750D02*
X0086538Y0250750D01*
X0087036Y0251248D02*
X0104926Y0251248D01*
X0104427Y0251747D02*
X0087535Y0251747D01*
X0088033Y0252245D02*
X0103929Y0252245D01*
X0103430Y0252744D02*
X0088532Y0252744D01*
X0089030Y0253242D02*
X0102931Y0253242D01*
X0102433Y0253741D02*
X0089529Y0253741D01*
X0083292Y0234299D02*
X0108670Y0234299D01*
X0108171Y0233800D02*
X0083791Y0233800D01*
X0084289Y0233302D02*
X0107673Y0233302D01*
X0107174Y0232803D02*
X0084788Y0232803D01*
X0085286Y0232305D02*
X0106676Y0232305D01*
X0106177Y0231806D02*
X0085785Y0231806D01*
X0086283Y0231308D02*
X0105679Y0231308D01*
X0105180Y0230809D02*
X0086782Y0230809D01*
X0087280Y0230311D02*
X0104682Y0230311D01*
X0104183Y0229812D02*
X0087779Y0229812D01*
X0088277Y0229314D02*
X0103685Y0229314D01*
X0103186Y0228815D02*
X0088776Y0228815D01*
X0089274Y0228317D02*
X0102688Y0228317D01*
X0073776Y0188933D02*
X0061178Y0188933D01*
X0056060Y0183815D01*
X0054485Y0182240D01*
X0054485Y0169642D01*
X0057635Y0166492D01*
X0061178Y0162949D01*
X0073776Y0162949D01*
X0078107Y0167280D01*
X0080469Y0169642D01*
X0080469Y0182240D01*
X0080075Y0182634D01*
X0073776Y0188933D01*
X0074273Y0188436D02*
X0060681Y0188436D01*
X0060182Y0187937D02*
X0074772Y0187937D01*
X0075270Y0187439D02*
X0059684Y0187439D01*
X0059185Y0186940D02*
X0075769Y0186940D01*
X0076267Y0186442D02*
X0058687Y0186442D01*
X0058188Y0185943D02*
X0076766Y0185943D01*
X0077264Y0185445D02*
X0057690Y0185445D01*
X0057191Y0184946D02*
X0077763Y0184946D01*
X0078261Y0184448D02*
X0056693Y0184448D01*
X0056194Y0183949D02*
X0078760Y0183949D01*
X0079259Y0183451D02*
X0055696Y0183451D01*
X0055197Y0182952D02*
X0079757Y0182952D01*
X0080256Y0182454D02*
X0054699Y0182454D01*
X0054485Y0181955D02*
X0080469Y0181955D01*
X0080469Y0181457D02*
X0054485Y0181457D01*
X0054485Y0180958D02*
X0080469Y0180958D01*
X0080469Y0180460D02*
X0054485Y0180460D01*
X0054485Y0179961D02*
X0080469Y0179961D01*
X0080469Y0179463D02*
X0054485Y0179463D01*
X0054485Y0178964D02*
X0080469Y0178964D01*
X0080469Y0178466D02*
X0054485Y0178466D01*
X0054485Y0177967D02*
X0080469Y0177967D01*
X0080469Y0177469D02*
X0054485Y0177469D01*
X0054485Y0176970D02*
X0080469Y0176970D01*
X0080469Y0176472D02*
X0054485Y0176472D01*
X0054485Y0175973D02*
X0080469Y0175973D01*
X0080469Y0175475D02*
X0054485Y0175475D01*
X0054485Y0174976D02*
X0080469Y0174976D01*
X0080469Y0174478D02*
X0054485Y0174478D01*
X0054485Y0173979D02*
X0080469Y0173979D01*
X0080469Y0173481D02*
X0054485Y0173481D01*
X0054485Y0172982D02*
X0080469Y0172982D01*
X0080469Y0172484D02*
X0054485Y0172484D01*
X0054485Y0171985D02*
X0080469Y0171985D01*
X0080469Y0171487D02*
X0054485Y0171487D01*
X0054485Y0170988D02*
X0080469Y0170988D01*
X0080469Y0170490D02*
X0054485Y0170490D01*
X0054485Y0169991D02*
X0080469Y0169991D01*
X0080320Y0169492D02*
X0054634Y0169492D01*
X0055133Y0168994D02*
X0079821Y0168994D01*
X0079323Y0168495D02*
X0055631Y0168495D01*
X0056130Y0167997D02*
X0078824Y0167997D01*
X0078326Y0167498D02*
X0056628Y0167498D01*
X0057127Y0167000D02*
X0077827Y0167000D01*
X0077329Y0166501D02*
X0057625Y0166501D01*
X0058124Y0166003D02*
X0076830Y0166003D01*
X0076332Y0165504D02*
X0058622Y0165504D01*
X0059121Y0165006D02*
X0075833Y0165006D01*
X0075335Y0164507D02*
X0059619Y0164507D01*
X0060118Y0164009D02*
X0074836Y0164009D01*
X0074338Y0163510D02*
X0060616Y0163510D01*
X0061115Y0163012D02*
X0073839Y0163012D01*
D17*
X0169682Y0148303D03*
X0177556Y0153028D03*
X0198028Y0150272D03*
X0207325Y0146763D03*
X0220075Y0138067D03*
X0214957Y0131768D03*
X0204721Y0129012D03*
X0194091Y0133343D03*
X0204721Y0119169D03*
X0189760Y0110114D03*
X0182280Y0103421D03*
X0172044Y0113264D03*
X0178755Y0120350D03*
X0146811Y0089576D03*
X0235036Y0138067D03*
X0237792Y0145154D03*
X0205509Y0168382D03*
X0209839Y0173894D03*
X0251178Y0195547D03*
X0255902Y0200665D03*
X0271257Y0198303D03*
X0271847Y0189839D03*
X0278343Y0176256D03*
X0271650Y0169563D03*
X0270469Y0089248D03*
M02*
