%
M48
M72
T01C0.01969
T02C0.04000
T03C0.11811
T04C0.19685
%
T01
X146811Y89576
X172044Y113264
X178755Y120350
X189760Y110114
X182280Y103421
X204721Y119169
X204721Y129012
X194091Y133343
X207325Y146763
X198028Y150272
X177556Y153028
X169682Y148303
X205509Y168382
X209839Y173894
X237792Y145154
X235036Y138067
X220075Y138067
X214957Y131768
X271650Y169563
X278343Y176256
X271847Y189839
X271257Y198303
X255902Y200665
X251178Y195547
X270469Y89248
T02
X141144Y50865
X141144Y60865
X198760Y50689
X208760Y50689
X218760Y50689
X228760Y50689
X238760Y50689
X277988Y50705
X277988Y60705
X277988Y70705
X277988Y80705
X317177Y105853
X327177Y105853
X348559Y105975
X348559Y115975
X348559Y125975
X348559Y135975
X348747Y170278
X348747Y180278
X348747Y190278
X209317Y203577
X199317Y203577
X199317Y213577
X209317Y213577
X189317Y213577
X189317Y203577
X185927Y242802
X195927Y242802
X205927Y242802
X175927Y242802
X165927Y242802
X155927Y242802
X145927Y242802
X135927Y242802
X111904Y258495
X101904Y258495
X82604Y258447
X72604Y258447
X62604Y258447
X52604Y258447
X42604Y258447
X42584Y193258
X42584Y183258
X42584Y173258
T03
X42123Y162476
X44091Y127043
X154327Y164445
X235036Y193972
X258658Y115232
X237005Y107358
X205509Y87673
X341335Y197909
X345272Y221531
X44091Y217594
T04
X91335Y115232
M30
