G75*
%MOIN*%
%OFA0B0*%
%FSLAX25Y25*%
%IPPOS*%
%LPD*%
%AMOC8*
5,1,8,0,0,1.08239X$1,22.5*
%
%ADD10C,0.00400*%
%ADD11C,0.00600*%
%ADD12C,0.01000*%
%ADD13C,0.00800*%
%ADD14C,0.00100*%
%ADD15C,0.00300*%
%ADD16C,0.00500*%
%ADD17C,0.00200*%
D10*
X0148325Y0046840D02*
X0148792Y0046373D01*
X0149259Y0046373D01*
X0149726Y0046840D01*
X0149726Y0047774D01*
X0150193Y0048241D01*
X0150660Y0048241D01*
X0151127Y0047774D01*
X0151127Y0046840D01*
X0150660Y0046373D01*
X0148325Y0046840D02*
X0148325Y0047774D01*
X0148792Y0048241D01*
X0148325Y0049319D02*
X0148325Y0050721D01*
X0148792Y0051188D01*
X0149726Y0051188D01*
X0150193Y0050721D01*
X0150193Y0049319D01*
X0151127Y0049319D02*
X0148325Y0049319D01*
X0148325Y0052266D02*
X0151127Y0052266D01*
X0151127Y0054134D01*
X0151127Y0055212D02*
X0149259Y0055212D01*
X0148325Y0056147D01*
X0149259Y0057081D01*
X0151127Y0057081D01*
X0151127Y0058159D02*
X0148325Y0058159D01*
X0149726Y0058626D02*
X0151127Y0060027D01*
X0151127Y0061105D02*
X0148325Y0061105D01*
X0148325Y0062974D01*
X0148325Y0064052D02*
X0148325Y0065453D01*
X0148792Y0065920D01*
X0149726Y0065920D01*
X0150193Y0065453D01*
X0150193Y0064052D01*
X0151127Y0064052D02*
X0148325Y0064052D01*
X0150193Y0064986D02*
X0151127Y0065920D01*
X0151127Y0062974D02*
X0151127Y0061105D01*
X0149726Y0061105D02*
X0149726Y0062040D01*
X0148325Y0060027D02*
X0150193Y0058159D01*
X0149726Y0057081D02*
X0149726Y0055212D01*
X0148325Y0054134D02*
X0148325Y0052266D01*
X0149726Y0052266D02*
X0149726Y0053200D01*
X0165266Y0066991D02*
X0167248Y0065009D01*
X0166588Y0065670D02*
X0167578Y0066661D01*
X0167578Y0067321D01*
X0166918Y0067982D01*
X0166257Y0067982D01*
X0165266Y0066991D01*
X0167248Y0066331D02*
X0168569Y0066331D01*
X0169332Y0067093D02*
X0170653Y0068414D01*
X0169992Y0067754D02*
X0168011Y0069735D01*
X0168011Y0068414D01*
X0169764Y0070828D02*
X0169764Y0071488D01*
X0170424Y0072149D01*
X0171085Y0072149D01*
X0171415Y0071819D01*
X0171415Y0071158D01*
X0172076Y0071158D01*
X0172406Y0070828D01*
X0172406Y0070167D01*
X0171745Y0069507D01*
X0171085Y0069507D01*
X0171085Y0070828D02*
X0171415Y0071158D01*
X0176311Y0066070D02*
X0178292Y0064088D01*
X0177632Y0063428D02*
X0178953Y0064749D01*
X0176311Y0064749D02*
X0176311Y0066070D01*
X0174227Y0063987D02*
X0176209Y0062005D01*
X0176869Y0062665D02*
X0175548Y0061344D01*
X0174786Y0060582D02*
X0173465Y0060582D01*
X0173795Y0060912D02*
X0172804Y0059921D01*
X0173465Y0059261D02*
X0171483Y0061242D01*
X0172474Y0062233D01*
X0173135Y0062233D01*
X0173795Y0061573D01*
X0173795Y0060912D01*
X0174227Y0062665D02*
X0174227Y0063987D01*
X0203892Y0060124D02*
X0203892Y0057322D01*
X0203892Y0058723D02*
X0205760Y0058723D01*
X0206838Y0058723D02*
X0207772Y0058723D01*
X0206838Y0057322D02*
X0208706Y0057322D01*
X0209785Y0057322D02*
X0209785Y0059190D01*
X0210719Y0060124D01*
X0211653Y0059190D01*
X0211653Y0057322D01*
X0212731Y0057322D02*
X0214132Y0057322D01*
X0214599Y0057789D01*
X0214599Y0059657D01*
X0214132Y0060124D01*
X0212731Y0060124D01*
X0212731Y0057322D01*
X0211653Y0058723D02*
X0209785Y0058723D01*
X0208706Y0060124D02*
X0206838Y0060124D01*
X0206838Y0057322D01*
X0205760Y0057322D02*
X0205760Y0060124D01*
X0215678Y0060124D02*
X0217079Y0060124D01*
X0217546Y0059657D01*
X0217546Y0058723D01*
X0217079Y0058256D01*
X0215678Y0058256D01*
X0215678Y0057322D02*
X0215678Y0060124D01*
X0218624Y0060124D02*
X0218624Y0057322D01*
X0218624Y0058723D02*
X0220492Y0058723D01*
X0220492Y0060124D02*
X0220492Y0057322D01*
X0221571Y0057789D02*
X0222038Y0057322D01*
X0222972Y0057322D01*
X0223439Y0057789D01*
X0223439Y0059657D01*
X0222972Y0060124D01*
X0222038Y0060124D01*
X0221571Y0059657D01*
X0221571Y0057789D01*
X0224517Y0057322D02*
X0224517Y0060124D01*
X0226385Y0057322D01*
X0226385Y0060124D01*
X0227464Y0060124D02*
X0227464Y0057322D01*
X0229332Y0057322D01*
X0230410Y0057789D02*
X0230877Y0057322D01*
X0231811Y0057322D01*
X0232279Y0057789D01*
X0232279Y0058256D01*
X0231811Y0058723D01*
X0230877Y0058723D01*
X0230410Y0059190D01*
X0230410Y0059657D01*
X0230877Y0060124D01*
X0231811Y0060124D01*
X0232279Y0059657D01*
X0229332Y0060124D02*
X0227464Y0060124D01*
X0227464Y0058723D02*
X0228398Y0058723D01*
X0226152Y0092686D02*
X0225492Y0092686D01*
X0224831Y0093347D01*
X0224831Y0094007D01*
X0224069Y0094770D02*
X0223408Y0094770D01*
X0222748Y0095430D01*
X0222748Y0096091D01*
X0224069Y0097412D01*
X0224729Y0097412D01*
X0225390Y0096752D01*
X0225390Y0096091D01*
X0226152Y0095329D02*
X0226813Y0095329D01*
X0227473Y0094668D01*
X0227473Y0094007D01*
X0227143Y0093677D01*
X0226483Y0093677D01*
X0226483Y0093017D01*
X0226152Y0092686D01*
X0226483Y0093677D02*
X0226152Y0094007D01*
X0242254Y0111256D02*
X0244235Y0113238D01*
X0242254Y0113238D01*
X0243575Y0111917D01*
X0242152Y0114661D02*
X0242152Y0115321D01*
X0241491Y0115982D01*
X0240831Y0115982D01*
X0239510Y0114661D01*
X0239510Y0114000D01*
X0240170Y0113340D01*
X0240831Y0113340D01*
X0246592Y0119569D02*
X0245931Y0120230D01*
X0245931Y0120890D01*
X0247253Y0122211D01*
X0247913Y0122211D01*
X0248574Y0121551D01*
X0248574Y0120890D01*
X0248676Y0119467D02*
X0249666Y0118476D01*
X0249666Y0117816D01*
X0249336Y0117485D01*
X0248676Y0117485D01*
X0248015Y0118146D01*
X0248015Y0118807D01*
X0248676Y0119467D01*
X0249997Y0119467D01*
X0250987Y0119137D01*
X0247253Y0119569D02*
X0246592Y0119569D01*
X0264486Y0137687D02*
X0264816Y0138018D01*
X0267458Y0138018D01*
X0267788Y0138348D01*
X0266467Y0139669D01*
X0265375Y0140101D02*
X0265375Y0140762D01*
X0264714Y0141422D01*
X0264054Y0141422D01*
X0263291Y0142185D02*
X0263291Y0142845D01*
X0262631Y0143506D01*
X0261970Y0143506D01*
X0260649Y0142185D01*
X0260649Y0141524D01*
X0261310Y0140864D01*
X0261970Y0140864D01*
X0262402Y0139771D02*
X0265044Y0139771D01*
X0265375Y0140101D01*
X0263723Y0138450D02*
X0262402Y0139771D01*
X0270028Y0146811D02*
X0272670Y0146811D01*
X0273000Y0147141D01*
X0273000Y0147801D01*
X0272340Y0148462D01*
X0271679Y0148462D01*
X0270917Y0149224D02*
X0270917Y0149885D01*
X0270256Y0150546D01*
X0269596Y0150546D01*
X0268274Y0149224D01*
X0268274Y0148564D01*
X0268935Y0147903D01*
X0269596Y0147903D01*
X0270028Y0146811D02*
X0271349Y0145490D01*
X0272441Y0145057D02*
X0272772Y0145388D01*
X0273432Y0145388D01*
X0274093Y0144727D01*
X0274093Y0144067D01*
X0273763Y0143736D01*
X0273102Y0143736D01*
X0272441Y0144397D01*
X0272441Y0145057D01*
X0273432Y0145388D02*
X0273432Y0146048D01*
X0273763Y0146378D01*
X0274423Y0146378D01*
X0275084Y0145718D01*
X0275084Y0145057D01*
X0274753Y0144727D01*
X0274093Y0144727D01*
X0280380Y0150971D02*
X0279059Y0152292D01*
X0279720Y0151632D02*
X0281702Y0153613D01*
X0280380Y0153613D01*
X0280279Y0155036D02*
X0278957Y0156357D01*
X0276976Y0154376D01*
X0277967Y0155367D02*
X0278627Y0154706D01*
X0292539Y0164684D02*
X0293860Y0163363D01*
X0293200Y0164024D02*
X0295181Y0166005D01*
X0293860Y0166005D01*
X0293428Y0167098D02*
X0293428Y0167759D01*
X0292767Y0168419D01*
X0292107Y0168419D01*
X0290786Y0167098D01*
X0290786Y0166438D01*
X0291446Y0165777D01*
X0292107Y0165777D01*
X0294953Y0162931D02*
X0297595Y0162931D01*
X0296274Y0161610D01*
X0295613Y0161610D01*
X0294953Y0162271D01*
X0294953Y0162931D01*
X0296274Y0164252D01*
X0296934Y0164252D01*
X0297595Y0163592D01*
X0297595Y0162931D01*
X0300962Y0167627D02*
X0300301Y0168288D01*
X0300301Y0168948D01*
X0299209Y0169381D02*
X0297888Y0170702D01*
X0298548Y0170041D02*
X0300530Y0172023D01*
X0299209Y0172023D01*
X0298776Y0173115D02*
X0298776Y0173776D01*
X0298116Y0174436D01*
X0297455Y0174436D01*
X0296134Y0173115D01*
X0296134Y0172455D01*
X0296795Y0171794D01*
X0297455Y0171794D01*
X0301622Y0170269D02*
X0302283Y0170269D01*
X0302943Y0169609D01*
X0302943Y0168948D01*
X0302613Y0168618D01*
X0301953Y0168618D01*
X0301953Y0167958D01*
X0301622Y0167627D01*
X0300962Y0167627D01*
X0301953Y0168618D02*
X0301622Y0168948D01*
X0311807Y0178457D02*
X0310486Y0179778D01*
X0313128Y0179778D01*
X0313459Y0180109D01*
X0313459Y0180769D01*
X0312798Y0181430D01*
X0312137Y0181430D01*
X0311045Y0183183D02*
X0309063Y0181201D01*
X0308403Y0181862D02*
X0309724Y0180541D01*
X0309724Y0183183D02*
X0311045Y0183183D01*
X0309292Y0184276D02*
X0309292Y0184936D01*
X0308631Y0185597D01*
X0307970Y0185597D01*
X0306649Y0184276D01*
X0306649Y0183615D01*
X0307310Y0182955D01*
X0307970Y0182955D01*
X0283018Y0201001D02*
X0283018Y0202086D01*
X0281933Y0202086D01*
X0280848Y0201001D01*
X0279763Y0201001D01*
X0279763Y0202086D01*
X0281391Y0203714D01*
X0283018Y0201001D02*
X0281391Y0199373D01*
X0280306Y0198288D02*
X0278135Y0196118D01*
X0277050Y0195033D02*
X0276508Y0194490D01*
X0275965Y0195033D01*
X0276508Y0195575D01*
X0277050Y0195033D01*
X0275422Y0193405D02*
X0273252Y0191235D01*
X0274337Y0192320D02*
X0271082Y0195575D01*
X0271082Y0193405D01*
X0268911Y0193405D02*
X0266741Y0191235D01*
X0269997Y0187979D01*
X0272167Y0190150D01*
X0269454Y0190692D02*
X0268369Y0189607D01*
X0265656Y0190150D02*
X0263486Y0187979D01*
X0266741Y0184724D01*
X0265113Y0186352D02*
X0266199Y0187437D01*
X0275965Y0198288D02*
X0275965Y0200459D01*
X0279220Y0197203D01*
X0313252Y0222631D02*
X0313913Y0221971D01*
X0314573Y0221971D01*
X0314904Y0222301D01*
X0314904Y0222961D01*
X0313913Y0223952D01*
X0313252Y0223292D01*
X0313252Y0222631D01*
X0313913Y0223952D02*
X0315234Y0223952D01*
X0316225Y0223622D01*
X0313481Y0226366D02*
X0311499Y0224384D01*
X0310839Y0225045D02*
X0312160Y0223724D01*
X0312160Y0226366D02*
X0313481Y0226366D01*
X0311728Y0227459D02*
X0311728Y0228119D01*
X0311067Y0228780D01*
X0310406Y0228780D01*
X0309085Y0227459D01*
X0309085Y0226798D01*
X0309746Y0226138D01*
X0310406Y0226138D01*
X0306127Y0230413D02*
X0305467Y0230413D01*
X0304806Y0231073D01*
X0304806Y0231734D01*
X0305467Y0232394D02*
X0306457Y0232064D01*
X0306788Y0231734D01*
X0306788Y0231073D01*
X0306127Y0230413D01*
X0305467Y0232394D02*
X0306457Y0233385D01*
X0307778Y0232064D01*
X0305034Y0234808D02*
X0303053Y0232826D01*
X0303713Y0232166D02*
X0302392Y0233487D01*
X0301960Y0234580D02*
X0301300Y0234580D01*
X0300639Y0235240D01*
X0300639Y0235901D01*
X0301960Y0237222D01*
X0302621Y0237222D01*
X0303281Y0236561D01*
X0303281Y0235901D01*
X0303713Y0234808D02*
X0305034Y0234808D01*
X0286805Y0229189D02*
X0286805Y0228528D01*
X0286475Y0228198D01*
X0283833Y0228198D01*
X0285154Y0226877D01*
X0286805Y0229189D02*
X0286145Y0229849D01*
X0285484Y0229849D01*
X0285052Y0230942D02*
X0281749Y0230282D01*
X0283070Y0228961D02*
X0283731Y0232263D01*
X0246068Y0212257D02*
X0244087Y0210275D01*
X0244747Y0209615D02*
X0243426Y0210936D01*
X0242664Y0211698D02*
X0241343Y0213019D01*
X0242003Y0212359D02*
X0243985Y0214340D01*
X0242664Y0214340D01*
X0242232Y0215433D02*
X0242232Y0216094D01*
X0241571Y0216754D01*
X0240910Y0216754D01*
X0239589Y0215433D01*
X0239589Y0214773D01*
X0240250Y0214112D01*
X0240910Y0214112D01*
X0237462Y0211643D02*
X0236802Y0212303D01*
X0236141Y0212303D01*
X0234820Y0210982D01*
X0234820Y0210322D01*
X0235481Y0209661D01*
X0236141Y0209661D01*
X0236573Y0208568D02*
X0237894Y0207247D01*
X0237234Y0207908D02*
X0239215Y0209889D01*
X0237894Y0209889D01*
X0237462Y0210982D02*
X0237462Y0211643D01*
X0239648Y0207476D02*
X0240969Y0206155D01*
X0241629Y0207476D02*
X0239648Y0207476D01*
X0241629Y0207476D02*
X0239648Y0205494D01*
X0244747Y0212257D02*
X0246068Y0212257D01*
X0219973Y0196050D02*
X0218105Y0196050D01*
X0219039Y0196050D02*
X0219039Y0193248D01*
X0217026Y0193248D02*
X0215158Y0193248D01*
X0215158Y0196050D01*
X0217026Y0196050D01*
X0216092Y0194649D02*
X0215158Y0194649D01*
X0214080Y0194182D02*
X0214080Y0193715D01*
X0213613Y0193248D01*
X0212679Y0193248D01*
X0212212Y0193715D01*
X0212679Y0194649D02*
X0213613Y0194649D01*
X0214080Y0194182D01*
X0214080Y0195583D02*
X0213613Y0196050D01*
X0212679Y0196050D01*
X0212212Y0195583D01*
X0212212Y0195116D01*
X0212679Y0194649D01*
X0211133Y0193248D02*
X0209265Y0193248D01*
X0209265Y0196050D01*
X0211133Y0196050D01*
X0210199Y0194649D02*
X0209265Y0194649D01*
X0208187Y0194649D02*
X0207720Y0194182D01*
X0206319Y0194182D01*
X0207253Y0194182D02*
X0208187Y0193248D01*
X0208187Y0194649D02*
X0208187Y0195583D01*
X0207720Y0196050D01*
X0206319Y0196050D01*
X0206319Y0193248D01*
X0203959Y0193189D02*
X0202557Y0194590D01*
X0202090Y0194123D02*
X0203959Y0195991D01*
X0202090Y0195991D02*
X0202090Y0193189D01*
X0201012Y0193656D02*
X0200545Y0193189D01*
X0199611Y0193189D01*
X0199144Y0193656D01*
X0199144Y0195524D01*
X0199611Y0195991D01*
X0200545Y0195991D01*
X0201012Y0195524D01*
X0198066Y0195524D02*
X0197599Y0195991D01*
X0196664Y0195991D01*
X0196197Y0195524D01*
X0196197Y0195057D01*
X0196664Y0194590D01*
X0197599Y0194590D01*
X0198066Y0194123D01*
X0198066Y0193656D01*
X0197599Y0193189D01*
X0196664Y0193189D01*
X0196197Y0193656D01*
X0194115Y0193752D02*
X0194115Y0195620D01*
X0193648Y0196087D01*
X0192714Y0196087D01*
X0192247Y0195620D01*
X0192247Y0193752D01*
X0192714Y0193285D01*
X0193648Y0193285D01*
X0194115Y0193752D01*
X0191168Y0193752D02*
X0190701Y0193285D01*
X0189767Y0193285D01*
X0189300Y0193752D01*
X0189767Y0194686D02*
X0189300Y0195153D01*
X0189300Y0195620D01*
X0189767Y0196087D01*
X0190701Y0196087D01*
X0191168Y0195620D01*
X0190701Y0194686D02*
X0191168Y0194219D01*
X0191168Y0193752D01*
X0190701Y0194686D02*
X0189767Y0194686D01*
X0188270Y0193285D02*
X0187336Y0193285D01*
X0187803Y0193285D02*
X0187803Y0196087D01*
X0187336Y0196087D02*
X0188270Y0196087D01*
X0186258Y0196087D02*
X0186258Y0193285D01*
X0184389Y0193285D02*
X0184389Y0196087D01*
X0185323Y0195153D01*
X0186258Y0196087D01*
X0194065Y0187801D02*
X0196047Y0189782D01*
X0197038Y0188792D01*
X0197038Y0188131D01*
X0196377Y0187470D01*
X0195716Y0187470D01*
X0194726Y0188461D01*
X0195386Y0187801D02*
X0195386Y0186480D01*
X0196149Y0185717D02*
X0197470Y0184396D01*
X0196809Y0185057D02*
X0198791Y0187038D01*
X0197470Y0187038D01*
X0187864Y0186768D02*
X0185882Y0184787D01*
X0185221Y0185447D02*
X0186543Y0184126D01*
X0186543Y0186768D02*
X0187864Y0186768D01*
X0186110Y0187861D02*
X0186110Y0188522D01*
X0185450Y0189182D01*
X0184789Y0189182D01*
X0183468Y0187861D01*
X0183468Y0187200D01*
X0184129Y0186540D01*
X0184789Y0186540D01*
X0171824Y0185570D02*
X0170503Y0186891D01*
X0169842Y0186891D01*
X0169182Y0186230D01*
X0169182Y0185570D01*
X0169512Y0185240D01*
X0170173Y0185240D01*
X0171163Y0186230D01*
X0171824Y0185570D02*
X0171824Y0184909D01*
X0171163Y0184249D01*
X0170503Y0184249D01*
X0169740Y0183486D02*
X0169740Y0182826D01*
X0169080Y0182165D01*
X0168419Y0182165D01*
X0167098Y0183486D01*
X0167098Y0184147D01*
X0167759Y0184807D01*
X0168419Y0184807D01*
X0161825Y0178232D02*
X0161164Y0178232D01*
X0160504Y0177572D01*
X0160504Y0176911D01*
X0160834Y0176581D01*
X0161495Y0176581D01*
X0162155Y0177241D01*
X0162816Y0177241D01*
X0163146Y0176911D01*
X0163146Y0176251D01*
X0162486Y0175590D01*
X0161825Y0175590D01*
X0161495Y0175920D01*
X0161495Y0176581D01*
X0162155Y0177241D02*
X0162155Y0177902D01*
X0161825Y0178232D01*
X0159742Y0176149D02*
X0159081Y0176149D01*
X0158420Y0175488D01*
X0158420Y0174828D01*
X0159742Y0173507D01*
X0160402Y0173507D01*
X0161063Y0174167D01*
X0161063Y0174828D01*
X0165239Y0158317D02*
X0167221Y0156336D01*
X0167881Y0156996D02*
X0166560Y0155675D01*
X0165798Y0154913D02*
X0162495Y0155573D01*
X0163816Y0156894D02*
X0164477Y0153592D01*
X0165239Y0156996D02*
X0165239Y0158317D01*
X0148050Y0142337D02*
X0148050Y0141676D01*
X0147389Y0141016D01*
X0146729Y0141016D01*
X0145738Y0142006D01*
X0145078Y0141346D02*
X0147059Y0143327D01*
X0148050Y0142337D01*
X0148482Y0140583D02*
X0149803Y0140583D01*
X0147822Y0138602D01*
X0147161Y0139262D02*
X0148482Y0137941D01*
X0149245Y0137179D02*
X0151887Y0137179D01*
X0152217Y0137509D01*
X0152217Y0138170D01*
X0151556Y0138830D01*
X0150896Y0138830D01*
X0149245Y0137179D02*
X0150566Y0135858D01*
X0146659Y0133266D02*
X0144678Y0133266D01*
X0145999Y0131945D01*
X0144678Y0131285D02*
X0146659Y0133266D01*
X0144245Y0135680D02*
X0142264Y0133698D01*
X0142924Y0133038D02*
X0141603Y0134359D01*
X0140841Y0135121D02*
X0140841Y0136442D01*
X0141171Y0136112D02*
X0140180Y0137103D01*
X0139520Y0136442D02*
X0141501Y0138424D01*
X0142492Y0137433D01*
X0142492Y0136773D01*
X0141832Y0136112D01*
X0141171Y0136112D01*
X0142924Y0135680D02*
X0144245Y0135680D01*
X0146399Y0140025D02*
X0146399Y0141346D01*
X0122404Y0157398D02*
X0121083Y0158719D01*
X0120092Y0157728D01*
X0121083Y0157398D01*
X0121413Y0157067D01*
X0121413Y0156407D01*
X0120752Y0155746D01*
X0120092Y0155746D01*
X0119431Y0156407D01*
X0119431Y0157067D01*
X0118339Y0157500D02*
X0117018Y0158821D01*
X0118999Y0160802D01*
X0122276Y0164003D02*
X0123597Y0162682D01*
X0124690Y0162249D02*
X0124690Y0161589D01*
X0125350Y0160928D01*
X0126011Y0160928D01*
X0126341Y0161259D01*
X0126341Y0161919D01*
X0126011Y0162249D01*
X0126341Y0161919D02*
X0127002Y0161919D01*
X0127332Y0162249D01*
X0127332Y0162910D01*
X0126671Y0163571D01*
X0126011Y0163571D01*
X0124258Y0165984D02*
X0122276Y0164003D01*
X0127762Y0169614D02*
X0129083Y0168293D01*
X0129846Y0167531D02*
X0132488Y0167531D01*
X0132818Y0167861D01*
X0132818Y0168522D01*
X0132158Y0169182D01*
X0131497Y0169182D01*
X0129846Y0167531D02*
X0131167Y0166210D01*
X0127762Y0169614D02*
X0129744Y0171596D01*
X0113400Y0155039D02*
X0111418Y0153057D01*
X0112739Y0151736D01*
X0114492Y0151965D02*
X0115813Y0150644D01*
X0114492Y0149983D02*
X0116474Y0151965D01*
X0114492Y0151965D01*
X0086957Y0161503D02*
X0086296Y0160842D01*
X0085636Y0160842D01*
X0085204Y0159750D02*
X0083883Y0158429D01*
X0083883Y0161071D01*
X0083552Y0161401D01*
X0082892Y0161401D01*
X0082231Y0160741D01*
X0082231Y0160080D01*
X0081469Y0159318D02*
X0080808Y0159318D01*
X0080148Y0158657D01*
X0080148Y0157996D01*
X0081469Y0156675D01*
X0082129Y0156675D01*
X0082790Y0157336D01*
X0082790Y0157996D01*
X0084315Y0162163D02*
X0084315Y0162824D01*
X0084975Y0163485D01*
X0085636Y0163485D01*
X0085966Y0163154D01*
X0085966Y0162494D01*
X0086627Y0162494D01*
X0086957Y0162163D01*
X0086957Y0161503D01*
X0085966Y0162494D02*
X0085636Y0162163D01*
X0052122Y0173534D02*
X0049319Y0173534D01*
X0049319Y0174935D01*
X0049786Y0175402D01*
X0050720Y0175402D01*
X0051187Y0174935D01*
X0051187Y0173534D01*
X0051187Y0174468D02*
X0052122Y0175402D01*
X0052122Y0176481D02*
X0052122Y0177415D01*
X0052122Y0176948D02*
X0049319Y0176948D01*
X0049319Y0176481D02*
X0049319Y0177415D01*
X0049786Y0178445D02*
X0051654Y0178445D01*
X0052122Y0178912D01*
X0052122Y0179846D01*
X0051654Y0180313D01*
X0050720Y0180313D01*
X0050720Y0179379D01*
X0049786Y0178445D02*
X0049319Y0178912D01*
X0049319Y0179846D01*
X0049786Y0180313D01*
X0049319Y0181392D02*
X0052122Y0181392D01*
X0050720Y0181392D02*
X0050720Y0183260D01*
X0049319Y0183260D02*
X0052122Y0183260D01*
X0052122Y0185272D02*
X0049319Y0185272D01*
X0049319Y0184338D02*
X0049319Y0186206D01*
X0052589Y0187285D02*
X0052589Y0189153D01*
X0051654Y0190231D02*
X0052122Y0190698D01*
X0052122Y0191632D01*
X0051654Y0192099D01*
X0051187Y0192099D01*
X0050720Y0191632D01*
X0050720Y0190698D01*
X0050253Y0190231D01*
X0049786Y0190231D01*
X0049319Y0190698D01*
X0049319Y0191632D01*
X0049786Y0192099D01*
X0049319Y0193178D02*
X0052122Y0193178D01*
X0050720Y0193178D02*
X0050720Y0195046D01*
X0049319Y0195046D02*
X0052122Y0195046D01*
X0058998Y0215056D02*
X0057677Y0216377D01*
X0060319Y0216377D01*
X0060649Y0216707D01*
X0060649Y0217368D01*
X0059989Y0218028D01*
X0059328Y0218028D01*
X0058566Y0218791D02*
X0058566Y0219451D01*
X0057905Y0220112D01*
X0057245Y0220112D01*
X0056482Y0220874D02*
X0056482Y0221535D01*
X0055822Y0222195D01*
X0055161Y0222195D01*
X0053840Y0220874D01*
X0053840Y0220214D01*
X0054501Y0219553D01*
X0055161Y0219553D01*
X0055593Y0218460D02*
X0058235Y0218460D01*
X0058566Y0218791D01*
X0056914Y0217139D02*
X0055593Y0218460D01*
X0061680Y0224133D02*
X0064322Y0224133D01*
X0064652Y0224463D01*
X0064652Y0225124D01*
X0063992Y0225784D01*
X0063331Y0225784D01*
X0062569Y0226547D02*
X0062569Y0227207D01*
X0061908Y0227868D01*
X0061248Y0227868D01*
X0059927Y0226547D01*
X0059927Y0225886D01*
X0060587Y0225226D01*
X0061248Y0225226D01*
X0061680Y0224133D02*
X0063001Y0222812D01*
X0063763Y0222050D02*
X0065084Y0220729D01*
X0064424Y0221389D02*
X0066406Y0223371D01*
X0065084Y0223371D01*
X0072786Y0230541D02*
X0073447Y0229880D01*
X0074107Y0229880D01*
X0075428Y0231202D01*
X0075428Y0231862D01*
X0074768Y0232523D01*
X0074107Y0232523D01*
X0073777Y0232192D01*
X0073777Y0231532D01*
X0074768Y0230541D01*
X0072786Y0230541D02*
X0072786Y0231202D01*
X0071694Y0231634D02*
X0070372Y0232955D01*
X0071033Y0232294D02*
X0073015Y0234276D01*
X0071694Y0234276D01*
X0071261Y0235369D02*
X0071261Y0236029D01*
X0070601Y0236690D01*
X0069940Y0236690D01*
X0068619Y0235369D01*
X0068619Y0234708D01*
X0069280Y0234047D01*
X0069940Y0234047D01*
X0081953Y0243884D02*
X0083275Y0242563D01*
X0082614Y0243224D02*
X0084596Y0245205D01*
X0083275Y0245205D01*
X0082842Y0246298D02*
X0082842Y0246958D01*
X0082182Y0247619D01*
X0081521Y0247619D01*
X0080200Y0246298D01*
X0080200Y0245637D01*
X0080861Y0244977D01*
X0081521Y0244977D01*
X0084367Y0242131D02*
X0084037Y0241801D01*
X0084367Y0242131D02*
X0087009Y0242131D01*
X0087340Y0242461D01*
X0086019Y0243782D01*
X0089427Y0246894D02*
X0088766Y0247554D01*
X0088766Y0248215D01*
X0089427Y0248875D02*
X0090417Y0248545D01*
X0090748Y0248215D01*
X0090748Y0247554D01*
X0090087Y0246894D01*
X0089427Y0246894D01*
X0089427Y0248875D02*
X0090417Y0249866D01*
X0091738Y0248545D01*
X0089325Y0250298D02*
X0088664Y0249638D01*
X0088004Y0249638D01*
X0087013Y0250629D01*
X0087673Y0249968D02*
X0087673Y0248647D01*
X0086352Y0249968D02*
X0088334Y0251950D01*
X0089325Y0250959D01*
X0089325Y0250298D01*
X0096073Y0250745D02*
X0097941Y0250745D01*
X0097941Y0251212D02*
X0097941Y0249344D01*
X0099020Y0249811D02*
X0099487Y0249344D01*
X0100421Y0249344D01*
X0100888Y0249811D01*
X0100888Y0252147D01*
X0101966Y0252147D02*
X0103367Y0252147D01*
X0103834Y0251680D01*
X0103834Y0249811D01*
X0103367Y0249344D01*
X0101966Y0249344D01*
X0101966Y0252147D01*
X0099020Y0252147D02*
X0099020Y0249811D01*
X0097941Y0251212D02*
X0097007Y0252147D01*
X0096073Y0251212D01*
X0096073Y0249344D01*
X0104913Y0249344D02*
X0105847Y0249344D01*
X0105380Y0249344D02*
X0105380Y0252147D01*
X0104913Y0252147D02*
X0105847Y0252147D01*
X0106877Y0251680D02*
X0106877Y0249811D01*
X0107344Y0249344D01*
X0108278Y0249344D01*
X0108745Y0249811D01*
X0108745Y0251680D01*
X0108278Y0252147D01*
X0107344Y0252147D01*
X0106877Y0251680D01*
X0109823Y0248877D02*
X0111692Y0248877D01*
X0112770Y0249344D02*
X0112770Y0252147D01*
X0114171Y0252147D01*
X0114638Y0251680D01*
X0114638Y0250745D01*
X0114171Y0250278D01*
X0112770Y0250278D01*
X0115717Y0249344D02*
X0116651Y0249344D01*
X0116184Y0249344D02*
X0116184Y0252147D01*
X0115717Y0252147D02*
X0116651Y0252147D01*
X0111876Y0229024D02*
X0112866Y0228033D01*
X0112866Y0227372D01*
X0112206Y0226712D01*
X0111545Y0226712D01*
X0110554Y0227703D01*
X0109894Y0227042D02*
X0111876Y0229024D01*
X0111215Y0227042D02*
X0111215Y0225721D01*
X0112308Y0225289D02*
X0112308Y0224628D01*
X0112968Y0223968D01*
X0113629Y0223968D01*
X0113959Y0224298D01*
X0113959Y0224959D01*
X0112968Y0225949D01*
X0112308Y0225289D01*
X0112968Y0225949D02*
X0114289Y0225949D01*
X0115280Y0225619D01*
X0109290Y0220597D02*
X0107309Y0218615D01*
X0106648Y0219276D02*
X0107969Y0217954D01*
X0109062Y0217522D02*
X0109392Y0217853D01*
X0110053Y0217853D01*
X0110713Y0217192D01*
X0110713Y0216531D01*
X0110383Y0216201D01*
X0109722Y0216201D01*
X0109062Y0216862D01*
X0109062Y0217522D01*
X0110053Y0217853D02*
X0110053Y0218513D01*
X0110383Y0218843D01*
X0111043Y0218843D01*
X0111704Y0218183D01*
X0111704Y0217522D01*
X0111374Y0217192D01*
X0110713Y0217192D01*
X0109290Y0220597D02*
X0107969Y0220597D01*
X0107537Y0221689D02*
X0107537Y0222350D01*
X0106876Y0223010D01*
X0106216Y0223010D01*
X0104895Y0221689D01*
X0104895Y0221029D01*
X0105555Y0220368D01*
X0106216Y0220368D01*
X0102176Y0216819D02*
X0102176Y0216158D01*
X0101516Y0215498D01*
X0100855Y0215498D01*
X0099864Y0216489D01*
X0099204Y0215828D02*
X0101185Y0217810D01*
X0102176Y0216819D01*
X0102939Y0215396D02*
X0102608Y0215066D01*
X0102608Y0214405D01*
X0103269Y0213745D01*
X0103269Y0213084D01*
X0102939Y0212754D01*
X0102278Y0212754D01*
X0101618Y0213414D01*
X0101618Y0214075D01*
X0101948Y0214405D01*
X0102608Y0214405D01*
X0103269Y0213745D02*
X0103930Y0213745D01*
X0104260Y0214075D01*
X0104260Y0214735D01*
X0103599Y0215396D01*
X0102939Y0215396D01*
X0100525Y0215828D02*
X0100525Y0214507D01*
X0096567Y0211299D02*
X0095907Y0211959D01*
X0095246Y0211959D01*
X0093925Y0210638D01*
X0093925Y0209978D01*
X0094585Y0209317D01*
X0095246Y0209317D01*
X0095678Y0208225D02*
X0098320Y0208225D01*
X0098651Y0208555D01*
X0098651Y0209215D01*
X0097990Y0209876D01*
X0097329Y0209876D01*
X0096567Y0210638D02*
X0096567Y0211299D01*
X0095678Y0208225D02*
X0096999Y0206903D01*
X0098092Y0206471D02*
X0100734Y0206471D01*
X0099413Y0205150D01*
X0098752Y0205150D01*
X0098092Y0205811D01*
X0098092Y0206471D01*
X0099413Y0207792D01*
X0100074Y0207792D01*
X0100734Y0207132D01*
X0100734Y0206471D01*
X0088669Y0200997D02*
X0088008Y0201658D01*
X0087348Y0201658D01*
X0087018Y0201328D01*
X0087018Y0200667D01*
X0088008Y0199676D01*
X0087348Y0199016D02*
X0088669Y0200337D01*
X0088669Y0200997D01*
X0087348Y0199016D02*
X0086687Y0199016D01*
X0086027Y0199676D01*
X0086027Y0200337D01*
X0084934Y0200769D02*
X0084934Y0202090D01*
X0085264Y0201760D02*
X0084274Y0202751D01*
X0083613Y0202090D02*
X0085595Y0204072D01*
X0086585Y0203081D01*
X0086585Y0202420D01*
X0085925Y0201760D01*
X0085264Y0201760D01*
X0080447Y0197732D02*
X0080447Y0197071D01*
X0079787Y0196411D01*
X0079126Y0196411D01*
X0078136Y0197401D01*
X0078796Y0196741D02*
X0078796Y0195420D01*
X0079559Y0194657D02*
X0080880Y0193336D01*
X0080219Y0193997D02*
X0082201Y0195978D01*
X0080880Y0195978D01*
X0080447Y0197732D02*
X0079457Y0198722D01*
X0077475Y0196741D01*
X0081972Y0192904D02*
X0084614Y0192904D01*
X0083293Y0191583D01*
X0082633Y0191583D01*
X0081972Y0192244D01*
X0081972Y0192904D01*
X0083293Y0194225D01*
X0083954Y0194225D01*
X0084614Y0193565D01*
X0084614Y0192904D01*
X0115377Y0213737D02*
X0116698Y0212415D01*
X0117359Y0212415D01*
X0118019Y0213076D01*
X0118019Y0213737D01*
X0119112Y0214169D02*
X0119112Y0216811D01*
X0118782Y0217141D01*
X0118121Y0217141D01*
X0117461Y0216481D01*
X0117461Y0215820D01*
X0116698Y0215058D02*
X0116038Y0215058D01*
X0115377Y0214397D01*
X0115377Y0213737D01*
X0119112Y0214169D02*
X0120433Y0215490D01*
X0120865Y0216582D02*
X0121526Y0216582D01*
X0122186Y0217243D01*
X0122186Y0217904D01*
X0121856Y0218234D01*
X0121196Y0218234D01*
X0120205Y0217243D01*
X0120865Y0216582D01*
X0120205Y0217243D02*
X0120205Y0218564D01*
X0120535Y0219555D01*
X0127715Y0212809D02*
X0126394Y0211488D01*
X0127385Y0210497D01*
X0127715Y0211488D01*
X0128045Y0211818D01*
X0128706Y0211818D01*
X0129366Y0211157D01*
X0129366Y0210497D01*
X0128706Y0209836D01*
X0128045Y0209836D01*
X0127613Y0208744D02*
X0126292Y0207423D01*
X0126292Y0210065D01*
X0125962Y0210395D01*
X0125301Y0210395D01*
X0124641Y0209734D01*
X0124641Y0209074D01*
X0123878Y0208311D02*
X0123218Y0208311D01*
X0122557Y0207651D01*
X0122557Y0206990D01*
X0123878Y0205669D01*
X0124539Y0205669D01*
X0125199Y0206330D01*
X0125199Y0206990D01*
X0132081Y0202655D02*
X0132081Y0201995D01*
X0132081Y0202655D02*
X0132741Y0203316D01*
X0133402Y0203316D01*
X0133732Y0202986D01*
X0133732Y0200343D01*
X0135053Y0201664D01*
X0134825Y0203418D02*
X0136146Y0204739D01*
X0134825Y0205399D02*
X0134825Y0203418D01*
X0136806Y0203418D02*
X0134825Y0205399D01*
X0131318Y0201232D02*
X0130658Y0201232D01*
X0129997Y0200572D01*
X0129997Y0199911D01*
X0131318Y0198590D01*
X0131979Y0198590D01*
X0132639Y0199251D01*
X0132639Y0199911D01*
X0162287Y0232728D02*
X0163222Y0232728D01*
X0163689Y0233195D01*
X0163689Y0235530D01*
X0164767Y0235063D02*
X0164767Y0234596D01*
X0165234Y0234129D01*
X0166168Y0234129D01*
X0166635Y0233662D01*
X0166635Y0233195D01*
X0166168Y0232728D01*
X0165234Y0232728D01*
X0164767Y0233195D01*
X0164767Y0235063D02*
X0165234Y0235530D01*
X0166168Y0235530D01*
X0166635Y0235063D01*
X0167713Y0235530D02*
X0169115Y0235530D01*
X0169582Y0235063D01*
X0169582Y0234596D01*
X0169115Y0234129D01*
X0167713Y0234129D01*
X0167713Y0232728D02*
X0169115Y0232728D01*
X0169582Y0233195D01*
X0169582Y0233662D01*
X0169115Y0234129D01*
X0167713Y0232728D02*
X0167713Y0235530D01*
X0170660Y0232261D02*
X0172528Y0232261D01*
X0173606Y0232728D02*
X0173606Y0235530D01*
X0173606Y0234129D02*
X0175475Y0234129D01*
X0175475Y0235530D02*
X0175475Y0232728D01*
X0176553Y0233195D02*
X0177020Y0232728D01*
X0177954Y0232728D01*
X0178421Y0233195D01*
X0178421Y0235530D01*
X0179499Y0235530D02*
X0180901Y0235530D01*
X0181368Y0235063D01*
X0181368Y0234596D01*
X0180901Y0234129D01*
X0179499Y0234129D01*
X0179499Y0232728D02*
X0180901Y0232728D01*
X0181368Y0233195D01*
X0181368Y0233662D01*
X0180901Y0234129D01*
X0179499Y0232728D02*
X0179499Y0235530D01*
X0176553Y0235530D02*
X0176553Y0233195D01*
X0184796Y0223146D02*
X0184796Y0221277D01*
X0185730Y0220343D01*
X0186664Y0221277D01*
X0186664Y0223146D01*
X0187743Y0222678D02*
X0188210Y0223146D01*
X0189144Y0223146D01*
X0189611Y0222678D01*
X0190689Y0222678D02*
X0190689Y0220810D01*
X0191156Y0220343D01*
X0192090Y0220343D01*
X0192557Y0220810D01*
X0192557Y0222678D02*
X0192090Y0223146D01*
X0191156Y0223146D01*
X0190689Y0222678D01*
X0189611Y0220810D02*
X0189144Y0220343D01*
X0188210Y0220343D01*
X0187743Y0220810D01*
X0187743Y0222678D01*
X0194661Y0223146D02*
X0195595Y0222211D01*
X0196529Y0223146D01*
X0196529Y0220343D01*
X0197607Y0220810D02*
X0198075Y0220343D01*
X0199009Y0220343D01*
X0199476Y0220810D01*
X0199476Y0222678D01*
X0199009Y0223146D01*
X0198075Y0223146D01*
X0197607Y0222678D01*
X0197607Y0220810D01*
X0200554Y0220810D02*
X0201021Y0220343D01*
X0201955Y0220343D01*
X0202422Y0220810D01*
X0202422Y0221277D01*
X0201955Y0221744D01*
X0201021Y0221744D01*
X0200554Y0222211D01*
X0200554Y0222678D01*
X0201021Y0223146D01*
X0201955Y0223146D01*
X0202422Y0222678D01*
X0203501Y0223146D02*
X0204435Y0223146D01*
X0203968Y0223146D02*
X0203968Y0220343D01*
X0203501Y0220343D02*
X0204435Y0220343D01*
X0206458Y0220912D02*
X0206458Y0222780D01*
X0206925Y0223247D01*
X0207859Y0223247D01*
X0208326Y0222780D01*
X0208326Y0221846D02*
X0207392Y0221846D01*
X0208326Y0221846D02*
X0208326Y0220912D01*
X0207859Y0220445D01*
X0206925Y0220445D01*
X0206458Y0220912D01*
X0209405Y0220445D02*
X0209405Y0223247D01*
X0211273Y0220445D01*
X0211273Y0223247D01*
X0212351Y0223247D02*
X0213752Y0223247D01*
X0214219Y0222780D01*
X0214219Y0220912D01*
X0213752Y0220445D01*
X0212351Y0220445D01*
X0212351Y0223247D01*
X0194661Y0223146D02*
X0194661Y0220343D01*
X0162287Y0232728D02*
X0161820Y0233195D01*
X0161820Y0235530D01*
X0238286Y0174630D02*
X0240268Y0172648D01*
X0239607Y0171988D02*
X0240928Y0173309D01*
X0241360Y0174401D02*
X0242021Y0174401D01*
X0242681Y0175062D01*
X0242681Y0175722D01*
X0242021Y0176383D01*
X0241360Y0176383D01*
X0241030Y0176053D01*
X0240700Y0175062D01*
X0239709Y0176053D01*
X0241030Y0177374D01*
X0238286Y0174630D02*
X0238286Y0173309D01*
X0237193Y0172876D02*
X0237854Y0172216D01*
X0237854Y0171555D01*
X0236863Y0170565D01*
X0237524Y0171225D02*
X0238845Y0171225D01*
X0237524Y0169904D02*
X0235542Y0171886D01*
X0236533Y0172876D01*
X0237193Y0172876D01*
X0241017Y0169171D02*
X0242008Y0170162D01*
X0242668Y0170162D01*
X0243329Y0169501D01*
X0243329Y0168840D01*
X0242338Y0167850D01*
X0242998Y0168510D02*
X0244319Y0168510D01*
X0244752Y0169603D02*
X0245412Y0169603D01*
X0246073Y0170263D01*
X0246073Y0170924D01*
X0245742Y0171254D01*
X0245082Y0171254D01*
X0244752Y0170924D01*
X0245082Y0171254D02*
X0245082Y0171915D01*
X0244752Y0172245D01*
X0244091Y0172245D01*
X0243431Y0171584D01*
X0243431Y0170924D01*
X0241017Y0169171D02*
X0242998Y0167189D01*
X0246261Y0164893D02*
X0247251Y0165884D01*
X0247912Y0165884D01*
X0248572Y0165223D01*
X0248572Y0164562D01*
X0247582Y0163572D01*
X0248242Y0164232D02*
X0249563Y0164232D01*
X0249335Y0165985D02*
X0250656Y0167306D01*
X0251317Y0165985D02*
X0249335Y0167967D01*
X0249335Y0165985D01*
X0248242Y0162911D02*
X0246261Y0164893D01*
X0245745Y0152299D02*
X0245085Y0152299D01*
X0244424Y0151638D01*
X0244424Y0150978D01*
X0243662Y0150215D02*
X0243001Y0150215D01*
X0242341Y0149555D01*
X0242341Y0148894D01*
X0243662Y0147573D01*
X0244323Y0147573D01*
X0244983Y0148234D01*
X0244983Y0148894D01*
X0246076Y0149326D02*
X0246076Y0151968D01*
X0245745Y0152299D01*
X0247397Y0150647D02*
X0246076Y0149326D01*
X0226797Y0168455D02*
X0226136Y0168455D01*
X0226797Y0168455D02*
X0227457Y0169115D01*
X0227457Y0169776D01*
X0226797Y0170437D01*
X0226136Y0170437D01*
X0225806Y0170106D01*
X0225476Y0169115D01*
X0224485Y0170106D01*
X0225806Y0171427D01*
X0224053Y0169014D02*
X0223392Y0169014D01*
X0222732Y0168353D01*
X0222732Y0167692D01*
X0224053Y0166371D01*
X0224713Y0166371D01*
X0225374Y0167032D01*
X0225374Y0167692D01*
X0163500Y0118830D02*
X0163500Y0116187D01*
X0163831Y0115857D01*
X0162738Y0115425D02*
X0162738Y0114764D01*
X0162077Y0114104D01*
X0161417Y0114104D01*
X0160096Y0115425D01*
X0160096Y0116086D01*
X0160756Y0116746D01*
X0161417Y0116746D01*
X0161849Y0117839D02*
X0163170Y0119160D01*
X0163500Y0118830D01*
X0185943Y0096783D02*
X0185943Y0096123D01*
X0185943Y0096783D02*
X0186603Y0097444D01*
X0187264Y0097444D01*
X0187594Y0097114D01*
X0187594Y0094471D01*
X0188915Y0095792D01*
X0186832Y0093709D02*
X0185511Y0093709D01*
X0185841Y0094039D02*
X0184850Y0093048D01*
X0185511Y0092388D02*
X0183529Y0094369D01*
X0184520Y0095360D01*
X0185180Y0095360D01*
X0185841Y0094700D01*
X0185841Y0094039D01*
X0314577Y0112283D02*
X0314577Y0115085D01*
X0315978Y0115085D01*
X0316445Y0114618D01*
X0316445Y0113684D01*
X0315978Y0113217D01*
X0314577Y0113217D01*
X0317523Y0112750D02*
X0317523Y0114618D01*
X0317990Y0115085D01*
X0318924Y0115085D01*
X0319391Y0114618D01*
X0319391Y0112750D01*
X0318924Y0112283D01*
X0317990Y0112283D01*
X0317523Y0112750D01*
X0320470Y0112283D02*
X0320470Y0115085D01*
X0322338Y0115085D02*
X0322338Y0112283D01*
X0321404Y0113217D01*
X0320470Y0112283D01*
X0323416Y0112283D02*
X0323416Y0115085D01*
X0325284Y0115085D01*
X0326363Y0115085D02*
X0327764Y0115085D01*
X0328231Y0114618D01*
X0328231Y0113684D01*
X0327764Y0113217D01*
X0326363Y0113217D01*
X0327297Y0113217D02*
X0328231Y0112283D01*
X0326363Y0112283D02*
X0326363Y0115085D01*
X0324350Y0113684D02*
X0323416Y0113684D01*
X0323416Y0112283D02*
X0325284Y0112283D01*
X0338989Y0111859D02*
X0341324Y0111859D01*
X0341791Y0112326D01*
X0341791Y0113260D01*
X0341324Y0113727D01*
X0338989Y0113727D01*
X0339456Y0114806D02*
X0339923Y0114806D01*
X0340390Y0115273D01*
X0340390Y0116207D01*
X0340857Y0116674D01*
X0341324Y0116674D01*
X0341791Y0116207D01*
X0341791Y0115273D01*
X0341324Y0114806D01*
X0339456Y0114806D02*
X0338989Y0115273D01*
X0338989Y0116207D01*
X0339456Y0116674D01*
X0338989Y0117752D02*
X0338989Y0119153D01*
X0339456Y0119620D01*
X0339923Y0119620D01*
X0340390Y0119153D01*
X0340390Y0117752D01*
X0341791Y0117752D02*
X0338989Y0117752D01*
X0340390Y0119153D02*
X0340857Y0119620D01*
X0341324Y0119620D01*
X0341791Y0119153D01*
X0341791Y0117752D01*
X0342258Y0120699D02*
X0342258Y0122567D01*
X0341791Y0123645D02*
X0338989Y0123645D01*
X0338989Y0125046D01*
X0339456Y0125513D01*
X0340390Y0125513D01*
X0340857Y0125046D01*
X0340857Y0123645D01*
X0341791Y0126592D02*
X0341791Y0127526D01*
X0341791Y0127059D02*
X0338989Y0127059D01*
X0338989Y0126592D02*
X0338989Y0127526D01*
X0338720Y0169928D02*
X0341523Y0169928D01*
X0341523Y0171796D01*
X0341523Y0172875D02*
X0341523Y0174743D01*
X0341523Y0175821D02*
X0338720Y0175821D01*
X0338720Y0177689D01*
X0338720Y0178768D02*
X0338720Y0180636D01*
X0338720Y0179702D02*
X0341523Y0179702D01*
X0341990Y0181714D02*
X0341990Y0183583D01*
X0341056Y0184661D02*
X0341523Y0185128D01*
X0341523Y0186062D01*
X0341056Y0186529D01*
X0340589Y0186529D01*
X0340122Y0186062D01*
X0340122Y0185128D01*
X0339655Y0184661D01*
X0339187Y0184661D01*
X0338720Y0185128D01*
X0338720Y0186062D01*
X0339187Y0186529D01*
X0338720Y0187607D02*
X0341523Y0187607D01*
X0340122Y0187607D02*
X0340122Y0189476D01*
X0341523Y0189476D02*
X0338720Y0189476D01*
X0340122Y0176755D02*
X0340122Y0175821D01*
X0338720Y0174743D02*
X0338720Y0172875D01*
X0341523Y0172875D01*
X0340122Y0172875D02*
X0340122Y0173809D01*
X0066505Y0251823D02*
X0064637Y0251823D01*
X0065571Y0251823D02*
X0065571Y0249020D01*
X0063559Y0249488D02*
X0063559Y0251356D01*
X0063092Y0251823D01*
X0062158Y0251823D01*
X0061690Y0251356D01*
X0061690Y0249488D01*
X0062158Y0249020D01*
X0063092Y0249020D01*
X0063559Y0249488D01*
X0060612Y0250422D02*
X0060145Y0249955D01*
X0058744Y0249955D01*
X0058744Y0249020D02*
X0058744Y0251823D01*
X0060145Y0251823D01*
X0060612Y0251356D01*
X0060612Y0250422D01*
D11*
X0086105Y0233698D02*
X0087776Y0232028D01*
X0090060Y0234402D02*
X0088390Y0236073D01*
X0091731Y0239413D02*
X0093401Y0237743D01*
X0095196Y0239883D02*
X0093526Y0241553D01*
X0096866Y0244894D02*
X0098537Y0243223D01*
X0106844Y0235283D02*
X0108515Y0233613D01*
X0105174Y0230272D02*
X0103504Y0231943D01*
X0101381Y0229742D02*
X0103052Y0228072D01*
X0099711Y0224731D02*
X0098041Y0226402D01*
X0096053Y0224222D02*
X0097723Y0222552D01*
X0094382Y0219211D02*
X0092712Y0220882D01*
X0090002Y0218621D02*
X0091672Y0216950D01*
X0088331Y0213610D02*
X0086661Y0215280D01*
X0081168Y0210148D02*
X0082839Y0208477D01*
X0079498Y0205137D02*
X0077828Y0206807D01*
X0075560Y0204057D02*
X0077231Y0202386D01*
X0073890Y0199046D02*
X0072220Y0200716D01*
X0063584Y0209028D02*
X0061914Y0210699D01*
X0065254Y0214039D02*
X0066925Y0212369D01*
X0069529Y0214913D02*
X0067859Y0216583D01*
X0071200Y0219924D02*
X0072870Y0218254D01*
X0078824Y0222961D02*
X0077153Y0224631D01*
X0080494Y0227972D02*
X0082164Y0226302D01*
X0084435Y0228687D02*
X0082765Y0230358D01*
X0108633Y0208718D02*
X0110303Y0210388D01*
X0113644Y0207048D02*
X0111973Y0205377D01*
X0115940Y0201830D02*
X0117610Y0203501D01*
X0120951Y0200160D02*
X0119281Y0198490D01*
X0123013Y0194864D02*
X0124683Y0196535D01*
X0128024Y0193194D02*
X0126353Y0191524D01*
X0123804Y0169510D02*
X0097641Y0195673D01*
X0097586Y0195725D01*
X0097528Y0195775D01*
X0097468Y0195821D01*
X0097405Y0195864D01*
X0097341Y0195905D01*
X0097274Y0195942D01*
X0097206Y0195975D01*
X0097136Y0196005D01*
X0097065Y0196031D01*
X0096993Y0196054D01*
X0096919Y0196073D01*
X0096845Y0196088D01*
X0096770Y0196100D01*
X0096694Y0196108D01*
X0096618Y0196112D01*
X0096542Y0196112D01*
X0096466Y0196108D01*
X0096390Y0196100D01*
X0096315Y0196088D01*
X0096241Y0196073D01*
X0096167Y0196054D01*
X0096095Y0196031D01*
X0096024Y0196005D01*
X0095954Y0195975D01*
X0095886Y0195942D01*
X0095819Y0195905D01*
X0095755Y0195864D01*
X0095692Y0195821D01*
X0095632Y0195775D01*
X0095574Y0195725D01*
X0095519Y0195673D01*
X0095520Y0195673D02*
X0086751Y0186905D01*
X0086699Y0186850D01*
X0086649Y0186792D01*
X0086603Y0186732D01*
X0086560Y0186669D01*
X0086519Y0186605D01*
X0086482Y0186538D01*
X0086449Y0186470D01*
X0086419Y0186400D01*
X0086393Y0186329D01*
X0086370Y0186257D01*
X0086351Y0186183D01*
X0086336Y0186109D01*
X0086324Y0186034D01*
X0086316Y0185958D01*
X0086312Y0185882D01*
X0086312Y0185806D01*
X0086316Y0185730D01*
X0086324Y0185654D01*
X0086336Y0185579D01*
X0086351Y0185505D01*
X0086370Y0185431D01*
X0086393Y0185359D01*
X0086419Y0185288D01*
X0086449Y0185218D01*
X0086482Y0185150D01*
X0086519Y0185083D01*
X0086560Y0185019D01*
X0086603Y0184956D01*
X0086649Y0184896D01*
X0086699Y0184838D01*
X0086751Y0184783D01*
X0112914Y0158620D01*
X0112969Y0158568D01*
X0113027Y0158518D01*
X0113087Y0158472D01*
X0113150Y0158429D01*
X0113214Y0158388D01*
X0113281Y0158351D01*
X0113349Y0158318D01*
X0113419Y0158288D01*
X0113490Y0158262D01*
X0113562Y0158239D01*
X0113636Y0158220D01*
X0113710Y0158205D01*
X0113785Y0158193D01*
X0113861Y0158185D01*
X0113937Y0158181D01*
X0114013Y0158181D01*
X0114089Y0158185D01*
X0114165Y0158193D01*
X0114240Y0158205D01*
X0114314Y0158220D01*
X0114388Y0158239D01*
X0114460Y0158262D01*
X0114531Y0158288D01*
X0114601Y0158318D01*
X0114669Y0158351D01*
X0114736Y0158388D01*
X0114800Y0158429D01*
X0114863Y0158472D01*
X0114923Y0158518D01*
X0114981Y0158568D01*
X0115036Y0158620D01*
X0118006Y0161590D01*
X0120834Y0164419D01*
X0123804Y0167388D01*
X0123856Y0167443D01*
X0123906Y0167501D01*
X0123952Y0167561D01*
X0123995Y0167624D01*
X0124036Y0167688D01*
X0124073Y0167755D01*
X0124106Y0167823D01*
X0124136Y0167893D01*
X0124162Y0167964D01*
X0124185Y0168036D01*
X0124204Y0168110D01*
X0124219Y0168184D01*
X0124231Y0168259D01*
X0124239Y0168335D01*
X0124243Y0168411D01*
X0124243Y0168487D01*
X0124239Y0168563D01*
X0124231Y0168639D01*
X0124219Y0168714D01*
X0124204Y0168788D01*
X0124185Y0168862D01*
X0124162Y0168934D01*
X0124136Y0169005D01*
X0124106Y0169075D01*
X0124073Y0169143D01*
X0124036Y0169210D01*
X0123995Y0169274D01*
X0123952Y0169337D01*
X0123906Y0169397D01*
X0123856Y0169455D01*
X0123804Y0169510D01*
X0120834Y0164418D02*
X0120770Y0164479D01*
X0120704Y0164538D01*
X0120635Y0164593D01*
X0120563Y0164645D01*
X0120489Y0164694D01*
X0120414Y0164740D01*
X0120336Y0164782D01*
X0120256Y0164821D01*
X0120175Y0164856D01*
X0120092Y0164888D01*
X0120009Y0164915D01*
X0119923Y0164940D01*
X0119837Y0164960D01*
X0119750Y0164977D01*
X0119663Y0164989D01*
X0119575Y0164998D01*
X0119486Y0165003D01*
X0119398Y0165004D01*
X0119309Y0165001D01*
X0119221Y0164994D01*
X0119133Y0164983D01*
X0119046Y0164969D01*
X0118960Y0164950D01*
X0118874Y0164928D01*
X0118789Y0164902D01*
X0118706Y0164872D01*
X0118624Y0164839D01*
X0118544Y0164802D01*
X0118465Y0164761D01*
X0118388Y0164717D01*
X0118313Y0164670D01*
X0118241Y0164619D01*
X0118171Y0164566D01*
X0118103Y0164509D01*
X0118037Y0164449D01*
X0117975Y0164387D01*
X0117915Y0164321D01*
X0117858Y0164253D01*
X0117805Y0164183D01*
X0117754Y0164111D01*
X0117707Y0164036D01*
X0117663Y0163959D01*
X0117622Y0163880D01*
X0117585Y0163800D01*
X0117552Y0163718D01*
X0117522Y0163635D01*
X0117496Y0163550D01*
X0117474Y0163464D01*
X0117455Y0163378D01*
X0117441Y0163291D01*
X0117430Y0163203D01*
X0117423Y0163115D01*
X0117420Y0163026D01*
X0117421Y0162938D01*
X0117426Y0162849D01*
X0117435Y0162761D01*
X0117447Y0162674D01*
X0117464Y0162587D01*
X0117484Y0162501D01*
X0117509Y0162415D01*
X0117536Y0162332D01*
X0117568Y0162249D01*
X0117603Y0162168D01*
X0117642Y0162088D01*
X0117684Y0162010D01*
X0117730Y0161935D01*
X0117779Y0161861D01*
X0117831Y0161789D01*
X0117886Y0161720D01*
X0117945Y0161654D01*
X0118006Y0161590D01*
X0126403Y0154435D02*
X0128074Y0152765D01*
X0130113Y0154716D02*
X0128443Y0156386D01*
X0123063Y0151094D02*
X0124733Y0149424D01*
X0122446Y0147171D02*
X0120776Y0148841D01*
X0117435Y0145501D02*
X0119106Y0143830D01*
X0132812Y0141358D02*
X0134482Y0139687D01*
X0137823Y0143028D02*
X0136153Y0144698D01*
X0138299Y0146544D02*
X0139970Y0144873D01*
X0143310Y0148214D02*
X0141640Y0149884D01*
X0133454Y0158057D02*
X0131784Y0159727D01*
X0133836Y0161747D02*
X0135506Y0160076D01*
X0138847Y0163417D02*
X0137177Y0165087D01*
X0162381Y0172713D02*
X0164051Y0174384D01*
X0167392Y0171043D02*
X0165722Y0169373D01*
X0174848Y0178199D02*
X0176518Y0179870D01*
X0173177Y0183210D02*
X0171507Y0181540D01*
X0189932Y0179594D02*
X0191602Y0177924D01*
X0194943Y0181264D02*
X0193273Y0182935D01*
X0200523Y0180106D02*
X0202193Y0178435D01*
X0205534Y0181776D02*
X0203863Y0183446D01*
X0227137Y0165477D02*
X0228807Y0167147D01*
X0232148Y0163807D02*
X0230478Y0162136D01*
X0238830Y0154689D02*
X0240500Y0156360D01*
X0243841Y0153019D02*
X0242170Y0151349D01*
X0243138Y0144352D02*
X0241468Y0142682D01*
X0244808Y0139341D02*
X0246479Y0141011D01*
X0242446Y0128604D02*
X0244116Y0126934D01*
X0240776Y0123593D02*
X0239105Y0125263D01*
X0235871Y0122029D02*
X0237542Y0120359D01*
X0234201Y0117018D02*
X0232531Y0118688D01*
X0218233Y0103998D02*
X0219904Y0102327D01*
X0216563Y0098987D02*
X0214893Y0100657D01*
X0195297Y0100657D02*
X0193627Y0098987D01*
X0190286Y0102327D02*
X0191957Y0103998D01*
X0172542Y0123019D02*
X0170871Y0121349D01*
X0167531Y0124689D02*
X0169201Y0126360D01*
X0090474Y0155172D02*
X0088804Y0153501D01*
X0085463Y0156842D02*
X0087133Y0158512D01*
X0160578Y0064251D02*
X0158907Y0062581D01*
X0162248Y0059240D02*
X0163918Y0060910D01*
X0166902Y0058385D02*
X0165232Y0056714D01*
X0168573Y0053374D02*
X0170243Y0055044D01*
X0269089Y0131927D02*
X0270760Y0130256D01*
X0274100Y0133597D02*
X0272430Y0135267D01*
X0276164Y0139037D02*
X0277834Y0137367D01*
X0281175Y0140708D02*
X0279504Y0142378D01*
X0285477Y0170259D02*
X0283807Y0171929D01*
X0287148Y0175270D02*
X0288818Y0173600D01*
X0291276Y0176439D02*
X0289605Y0178109D01*
X0292946Y0181450D02*
X0294616Y0179779D01*
X0301361Y0187419D02*
X0299690Y0189089D01*
X0303031Y0192430D02*
X0304701Y0190759D01*
X0307941Y0218278D02*
X0306271Y0219948D01*
X0309611Y0223289D02*
X0311282Y0221619D01*
X0301675Y0230949D02*
X0300005Y0232620D01*
X0296664Y0229279D02*
X0298335Y0227609D01*
X0253580Y0206448D02*
X0251910Y0208118D01*
X0248569Y0204777D02*
X0250239Y0203107D01*
X0248601Y0201401D02*
X0246931Y0203072D01*
X0243590Y0199731D02*
X0245260Y0198061D01*
X0245443Y0184273D02*
X0243773Y0182603D01*
X0247113Y0179262D02*
X0248784Y0180932D01*
X0250099Y0179620D02*
X0248429Y0177950D01*
X0251769Y0174609D02*
X0253440Y0176280D01*
X0254768Y0175045D02*
X0253098Y0173374D01*
X0256438Y0170034D02*
X0258109Y0171704D01*
D12*
X0226305Y0137957D02*
X0226307Y0138024D01*
X0226313Y0138090D01*
X0226323Y0138156D01*
X0226337Y0138221D01*
X0226354Y0138285D01*
X0226376Y0138348D01*
X0226401Y0138410D01*
X0226430Y0138470D01*
X0226463Y0138528D01*
X0226498Y0138584D01*
X0226538Y0138638D01*
X0226580Y0138689D01*
X0226625Y0138738D01*
X0226673Y0138784D01*
X0226724Y0138827D01*
X0226777Y0138867D01*
X0226833Y0138904D01*
X0226891Y0138937D01*
X0226950Y0138967D01*
X0227011Y0138993D01*
X0227074Y0139016D01*
X0227138Y0139034D01*
X0227203Y0139049D01*
X0227269Y0139060D01*
X0227335Y0139067D01*
X0227401Y0139070D01*
X0227468Y0139069D01*
X0227534Y0139064D01*
X0227600Y0139055D01*
X0227666Y0139042D01*
X0227730Y0139025D01*
X0227793Y0139005D01*
X0227855Y0138980D01*
X0227916Y0138952D01*
X0227975Y0138921D01*
X0228031Y0138886D01*
X0228086Y0138848D01*
X0228138Y0138806D01*
X0228187Y0138761D01*
X0228234Y0138714D01*
X0228278Y0138664D01*
X0228318Y0138611D01*
X0228356Y0138556D01*
X0228390Y0138499D01*
X0228421Y0138440D01*
X0228448Y0138379D01*
X0228471Y0138317D01*
X0228491Y0138253D01*
X0228507Y0138188D01*
X0228519Y0138123D01*
X0228527Y0138057D01*
X0228531Y0137990D01*
X0228531Y0137924D01*
X0228527Y0137857D01*
X0228519Y0137791D01*
X0228507Y0137726D01*
X0228491Y0137661D01*
X0228471Y0137597D01*
X0228448Y0137535D01*
X0228421Y0137474D01*
X0228390Y0137415D01*
X0228356Y0137358D01*
X0228318Y0137303D01*
X0228278Y0137250D01*
X0228234Y0137200D01*
X0228187Y0137153D01*
X0228138Y0137108D01*
X0228086Y0137066D01*
X0228031Y0137028D01*
X0227974Y0136993D01*
X0227916Y0136962D01*
X0227855Y0136934D01*
X0227793Y0136909D01*
X0227730Y0136889D01*
X0227666Y0136872D01*
X0227600Y0136859D01*
X0227534Y0136850D01*
X0227468Y0136845D01*
X0227401Y0136844D01*
X0227335Y0136847D01*
X0227269Y0136854D01*
X0227203Y0136865D01*
X0227138Y0136880D01*
X0227074Y0136898D01*
X0227011Y0136921D01*
X0226950Y0136947D01*
X0226891Y0136977D01*
X0226833Y0137010D01*
X0226777Y0137047D01*
X0226724Y0137087D01*
X0226673Y0137130D01*
X0226625Y0137176D01*
X0226580Y0137225D01*
X0226538Y0137276D01*
X0226498Y0137330D01*
X0226463Y0137386D01*
X0226430Y0137444D01*
X0226401Y0137504D01*
X0226376Y0137566D01*
X0226354Y0137629D01*
X0226337Y0137693D01*
X0226323Y0137758D01*
X0226313Y0137824D01*
X0226307Y0137890D01*
X0226305Y0137957D01*
D13*
X0136144Y0048365D02*
X0138644Y0045865D01*
X0143644Y0045865D01*
X0146144Y0048365D01*
X0146144Y0053365D01*
X0143644Y0055865D01*
X0146144Y0058365D01*
X0146144Y0063365D01*
X0143644Y0065865D01*
X0138644Y0065865D01*
X0136144Y0063365D01*
X0136144Y0058365D01*
X0138644Y0055865D01*
X0136144Y0053365D01*
X0136144Y0048365D01*
X0193760Y0048189D02*
X0196260Y0045689D01*
X0201260Y0045689D01*
X0203760Y0048189D01*
X0206260Y0045689D01*
X0211260Y0045689D01*
X0213760Y0048189D01*
X0216260Y0045689D01*
X0221260Y0045689D01*
X0223760Y0048189D01*
X0226260Y0045689D01*
X0231260Y0045689D01*
X0233760Y0048189D01*
X0236260Y0045689D01*
X0241260Y0045689D01*
X0243760Y0048189D01*
X0243760Y0053189D01*
X0241260Y0055689D01*
X0236260Y0055689D01*
X0233760Y0053189D01*
X0231260Y0055689D01*
X0226260Y0055689D01*
X0223760Y0053189D01*
X0221260Y0055689D01*
X0216260Y0055689D01*
X0213760Y0053189D01*
X0211260Y0055689D01*
X0206260Y0055689D01*
X0203760Y0053189D01*
X0201260Y0055689D01*
X0196260Y0055689D01*
X0193760Y0053189D01*
X0193760Y0048189D01*
X0272988Y0048205D02*
X0275488Y0045705D01*
X0280488Y0045705D01*
X0282988Y0048205D01*
X0282988Y0053205D01*
X0280488Y0055705D01*
X0282988Y0058205D01*
X0282988Y0063205D01*
X0280488Y0065705D01*
X0282988Y0068205D01*
X0282988Y0073205D01*
X0280488Y0075705D01*
X0282988Y0078205D01*
X0282988Y0083205D01*
X0280488Y0085705D01*
X0275488Y0085705D01*
X0272988Y0083205D01*
X0272988Y0078205D01*
X0275488Y0075705D01*
X0272988Y0073205D01*
X0272988Y0068205D01*
X0275488Y0065705D01*
X0272988Y0063205D01*
X0272988Y0058205D01*
X0275488Y0055705D01*
X0272988Y0053205D01*
X0272988Y0048205D01*
X0314677Y0100853D02*
X0312177Y0103353D01*
X0312177Y0108353D01*
X0314677Y0110853D01*
X0319677Y0110853D01*
X0322177Y0108353D01*
X0324677Y0110853D01*
X0329677Y0110853D01*
X0332177Y0108353D01*
X0332177Y0103353D01*
X0329677Y0100853D01*
X0324677Y0100853D01*
X0322177Y0103353D01*
X0319677Y0100853D01*
X0314677Y0100853D01*
X0343559Y0103475D02*
X0346059Y0100975D01*
X0351059Y0100975D01*
X0353559Y0103475D01*
X0353559Y0108475D01*
X0351059Y0110975D01*
X0353559Y0113475D01*
X0353559Y0118475D01*
X0351059Y0120975D01*
X0353559Y0123475D01*
X0353559Y0128475D01*
X0351059Y0130975D01*
X0353559Y0133475D01*
X0353559Y0138475D01*
X0351059Y0140975D01*
X0346059Y0140975D01*
X0343559Y0138475D01*
X0343559Y0133475D01*
X0346059Y0130975D01*
X0343559Y0128475D01*
X0343559Y0123475D01*
X0346059Y0120975D01*
X0343559Y0118475D01*
X0343559Y0113475D01*
X0346059Y0110975D01*
X0343559Y0108475D01*
X0343559Y0103475D01*
X0291673Y0145964D02*
X0288138Y0149500D01*
X0283895Y0145257D02*
X0287431Y0141722D01*
X0265296Y0176231D02*
X0254996Y0186531D01*
X0282556Y0214092D01*
X0292856Y0203791D01*
X0292801Y0203736D02*
X0265296Y0176231D01*
X0281136Y0209916D02*
X0281138Y0209991D01*
X0281144Y0210066D01*
X0281154Y0210140D01*
X0281168Y0210214D01*
X0281185Y0210287D01*
X0281207Y0210358D01*
X0281232Y0210429D01*
X0281261Y0210498D01*
X0281293Y0210566D01*
X0281329Y0210631D01*
X0281369Y0210695D01*
X0281412Y0210757D01*
X0281458Y0210816D01*
X0281507Y0210873D01*
X0281559Y0210927D01*
X0281613Y0210978D01*
X0281671Y0211026D01*
X0281730Y0211071D01*
X0281793Y0211113D01*
X0281857Y0211152D01*
X0281923Y0211187D01*
X0281991Y0211219D01*
X0282061Y0211247D01*
X0282131Y0211271D01*
X0282204Y0211292D01*
X0282277Y0211308D01*
X0282351Y0211321D01*
X0282425Y0211330D01*
X0282500Y0211335D01*
X0282575Y0211336D01*
X0282650Y0211333D01*
X0282724Y0211326D01*
X0282798Y0211315D01*
X0282872Y0211300D01*
X0282945Y0211282D01*
X0283016Y0211259D01*
X0283086Y0211233D01*
X0283155Y0211203D01*
X0283222Y0211170D01*
X0283288Y0211133D01*
X0283351Y0211093D01*
X0283412Y0211049D01*
X0283470Y0211002D01*
X0283526Y0210953D01*
X0283580Y0210900D01*
X0283630Y0210845D01*
X0283678Y0210787D01*
X0283722Y0210726D01*
X0283763Y0210664D01*
X0283801Y0210599D01*
X0283835Y0210532D01*
X0283866Y0210464D01*
X0283893Y0210394D01*
X0283917Y0210323D01*
X0283936Y0210250D01*
X0283952Y0210177D01*
X0283964Y0210103D01*
X0283972Y0210028D01*
X0283976Y0209953D01*
X0283976Y0209879D01*
X0283972Y0209804D01*
X0283964Y0209729D01*
X0283952Y0209655D01*
X0283936Y0209582D01*
X0283917Y0209509D01*
X0283893Y0209438D01*
X0283866Y0209368D01*
X0283835Y0209300D01*
X0283801Y0209233D01*
X0283763Y0209168D01*
X0283722Y0209106D01*
X0283678Y0209045D01*
X0283630Y0208987D01*
X0283580Y0208932D01*
X0283526Y0208879D01*
X0283470Y0208830D01*
X0283412Y0208783D01*
X0283351Y0208739D01*
X0283288Y0208699D01*
X0283222Y0208662D01*
X0283155Y0208629D01*
X0283086Y0208599D01*
X0283016Y0208573D01*
X0282945Y0208550D01*
X0282872Y0208532D01*
X0282798Y0208517D01*
X0282724Y0208506D01*
X0282650Y0208499D01*
X0282575Y0208496D01*
X0282500Y0208497D01*
X0282425Y0208502D01*
X0282351Y0208511D01*
X0282277Y0208524D01*
X0282204Y0208540D01*
X0282131Y0208561D01*
X0282061Y0208585D01*
X0281991Y0208613D01*
X0281923Y0208645D01*
X0281857Y0208680D01*
X0281793Y0208719D01*
X0281730Y0208761D01*
X0281671Y0208806D01*
X0281613Y0208854D01*
X0281559Y0208905D01*
X0281507Y0208959D01*
X0281458Y0209016D01*
X0281412Y0209075D01*
X0281369Y0209137D01*
X0281329Y0209201D01*
X0281293Y0209266D01*
X0281261Y0209334D01*
X0281232Y0209403D01*
X0281207Y0209474D01*
X0281185Y0209545D01*
X0281168Y0209618D01*
X0281154Y0209692D01*
X0281144Y0209766D01*
X0281138Y0209841D01*
X0281136Y0209916D01*
X0343747Y0192778D02*
X0343747Y0187778D01*
X0346247Y0185278D01*
X0343747Y0182778D01*
X0343747Y0177778D01*
X0346247Y0175278D01*
X0343747Y0172778D01*
X0343747Y0167778D01*
X0346247Y0165278D01*
X0351247Y0165278D01*
X0353747Y0167778D01*
X0353747Y0172778D01*
X0351247Y0175278D01*
X0353747Y0177778D01*
X0353747Y0182778D01*
X0351247Y0185278D01*
X0353747Y0187778D01*
X0353747Y0192778D01*
X0351247Y0195278D01*
X0346247Y0195278D01*
X0343747Y0192778D01*
X0230758Y0139070D02*
X0230758Y0136843D01*
X0206260Y0112345D01*
X0204033Y0112345D01*
X0179535Y0136843D01*
X0179535Y0139070D01*
X0204033Y0163568D01*
X0206260Y0163568D01*
X0230758Y0139070D01*
X0211817Y0198577D02*
X0206817Y0198577D01*
X0204317Y0201077D01*
X0204317Y0216077D01*
X0206817Y0218577D01*
X0211817Y0218577D01*
X0214317Y0216077D01*
X0214317Y0201077D01*
X0211817Y0198577D01*
X0204317Y0201077D02*
X0201817Y0198577D01*
X0196817Y0198577D01*
X0194317Y0201077D01*
X0194317Y0216077D01*
X0196817Y0218577D01*
X0201817Y0218577D01*
X0204317Y0216077D01*
X0194317Y0216077D02*
X0191817Y0218577D01*
X0186817Y0218577D01*
X0184317Y0216077D01*
X0184317Y0201077D01*
X0186817Y0198577D01*
X0191817Y0198577D01*
X0194317Y0201077D01*
X0191817Y0197258D02*
X0186817Y0197258D01*
X0188427Y0237802D02*
X0183427Y0237802D01*
X0180927Y0240302D01*
X0178427Y0237802D01*
X0173427Y0237802D01*
X0170927Y0240302D01*
X0168427Y0237802D01*
X0163427Y0237802D01*
X0160927Y0240302D01*
X0158427Y0237802D01*
X0153427Y0237802D01*
X0150927Y0240302D01*
X0148427Y0237802D01*
X0143427Y0237802D01*
X0140927Y0240302D01*
X0138427Y0237802D01*
X0133427Y0237802D01*
X0130927Y0240302D01*
X0130927Y0245302D01*
X0133427Y0247802D01*
X0138427Y0247802D01*
X0140927Y0245302D01*
X0143427Y0247802D01*
X0148427Y0247802D01*
X0150927Y0245302D01*
X0153427Y0247802D01*
X0158427Y0247802D01*
X0160927Y0245302D01*
X0163427Y0247802D01*
X0168427Y0247802D01*
X0170927Y0245302D01*
X0173427Y0247802D01*
X0178427Y0247802D01*
X0180927Y0245302D01*
X0183427Y0247802D01*
X0188427Y0247802D01*
X0190927Y0245302D01*
X0193427Y0247802D01*
X0198427Y0247802D01*
X0200927Y0245302D01*
X0203427Y0247802D01*
X0208427Y0247802D01*
X0210927Y0245302D01*
X0210927Y0240302D01*
X0208427Y0237802D01*
X0203427Y0237802D01*
X0200927Y0240302D01*
X0198427Y0237802D01*
X0193427Y0237802D01*
X0190927Y0240302D01*
X0188427Y0237802D01*
X0116904Y0255995D02*
X0114404Y0253495D01*
X0109404Y0253495D01*
X0106904Y0255995D01*
X0104404Y0253495D01*
X0099404Y0253495D01*
X0096904Y0255995D01*
X0096904Y0260995D01*
X0099404Y0263495D01*
X0104404Y0263495D01*
X0106904Y0260995D01*
X0109404Y0263495D01*
X0114404Y0263495D01*
X0116904Y0260995D01*
X0116904Y0255995D01*
X0087604Y0255947D02*
X0085104Y0253447D01*
X0080104Y0253447D01*
X0077604Y0255947D01*
X0075104Y0253447D01*
X0070104Y0253447D01*
X0067604Y0255947D01*
X0065104Y0253447D01*
X0060104Y0253447D01*
X0057604Y0255947D01*
X0055104Y0253447D01*
X0050104Y0253447D01*
X0047604Y0255947D01*
X0045104Y0253447D01*
X0040104Y0253447D01*
X0037604Y0255947D01*
X0037604Y0260947D01*
X0040104Y0263447D01*
X0045104Y0263447D01*
X0047604Y0260947D01*
X0050104Y0263447D01*
X0055104Y0263447D01*
X0057604Y0260947D01*
X0060104Y0263447D01*
X0065104Y0263447D01*
X0067604Y0260947D01*
X0070104Y0263447D01*
X0075104Y0263447D01*
X0077604Y0260947D01*
X0080104Y0263447D01*
X0085104Y0263447D01*
X0087604Y0260947D01*
X0087604Y0255947D01*
X0045084Y0198258D02*
X0040084Y0198258D01*
X0037584Y0195758D01*
X0037584Y0190758D01*
X0040084Y0188258D01*
X0037584Y0185758D01*
X0037584Y0180758D01*
X0040084Y0178258D01*
X0037584Y0175758D01*
X0037584Y0170758D01*
X0040084Y0168258D01*
X0045084Y0168258D01*
X0047584Y0170758D01*
X0047584Y0175758D01*
X0045084Y0178258D01*
X0047584Y0180758D01*
X0047584Y0185758D01*
X0045084Y0188258D01*
X0047584Y0190758D01*
X0047584Y0195758D01*
X0045084Y0198258D01*
D14*
X0221183Y0138368D02*
X0222067Y0137483D01*
X0222421Y0137483D01*
X0222775Y0137837D01*
X0222775Y0138191D01*
X0221891Y0139075D01*
X0222402Y0139233D02*
X0222402Y0139586D01*
X0222755Y0139940D01*
X0223109Y0139940D01*
X0223620Y0140097D02*
X0223620Y0140805D01*
X0224682Y0139744D01*
X0225036Y0140097D02*
X0224328Y0139390D01*
X0223817Y0139233D02*
X0223640Y0139409D01*
X0223286Y0139409D01*
X0222932Y0139056D01*
X0222578Y0139056D01*
X0222402Y0139233D01*
X0222402Y0139940D02*
X0223817Y0138525D01*
X0223817Y0138879D02*
X0223817Y0139233D01*
X0223817Y0138879D02*
X0223463Y0138525D01*
X0223109Y0138525D01*
D15*
X0244681Y0136851D02*
X0246733Y0134799D01*
X0248102Y0136167D01*
X0248817Y0136882D02*
X0250185Y0138250D01*
X0249501Y0137566D02*
X0247449Y0139619D01*
X0247449Y0138250D01*
X0268708Y0073456D02*
X0268224Y0072973D01*
X0268224Y0072005D01*
X0268708Y0071521D01*
X0270643Y0071521D01*
X0271127Y0072005D01*
X0271127Y0072973D01*
X0270643Y0073456D01*
X0269675Y0073456D01*
X0269675Y0072489D01*
X0268708Y0070510D02*
X0268224Y0070026D01*
X0268224Y0069059D01*
X0268708Y0068575D01*
X0270643Y0068575D01*
X0271127Y0069059D01*
X0271127Y0070026D01*
X0270643Y0070510D01*
X0268708Y0070510D01*
X0271127Y0067563D02*
X0271127Y0065628D01*
X0268224Y0065628D01*
X0269192Y0064617D02*
X0271127Y0064617D01*
X0269675Y0064617D02*
X0269675Y0062682D01*
X0269192Y0062682D02*
X0268224Y0063649D01*
X0269192Y0064617D01*
X0269192Y0062682D02*
X0271127Y0062682D01*
X0271127Y0061670D02*
X0268224Y0061670D01*
X0268224Y0059735D02*
X0271127Y0061670D01*
X0271127Y0059735D02*
X0268224Y0059735D01*
X0269192Y0058724D02*
X0271127Y0058724D01*
X0269675Y0058724D02*
X0269675Y0056789D01*
X0269192Y0056789D02*
X0268224Y0057756D01*
X0269192Y0058724D01*
X0269192Y0056789D02*
X0271127Y0056789D01*
X0080813Y0237281D02*
X0080471Y0236939D01*
X0077734Y0236939D01*
X0077392Y0236597D01*
X0076677Y0237312D02*
X0076677Y0238681D01*
X0077019Y0238338D02*
X0075993Y0239365D01*
X0075309Y0238681D02*
X0077361Y0240733D01*
X0078387Y0239707D01*
X0078387Y0239023D01*
X0077703Y0238338D01*
X0077019Y0238338D01*
X0079444Y0238649D02*
X0080813Y0237281D01*
D16*
X0167118Y0166341D02*
X0179463Y0178686D01*
X0179522Y0178727D01*
X0179583Y0178765D01*
X0179645Y0178799D01*
X0179710Y0178830D01*
X0179776Y0178858D01*
X0179844Y0178881D01*
X0179913Y0178901D01*
X0179983Y0178918D01*
X0180054Y0178930D01*
X0180125Y0178939D01*
X0180196Y0178944D01*
X0180268Y0178945D01*
X0180340Y0178942D01*
X0180411Y0178935D01*
X0180482Y0178924D01*
X0180553Y0178910D01*
X0180622Y0178892D01*
X0180690Y0178870D01*
X0180757Y0178844D01*
X0180823Y0178815D01*
X0180887Y0178782D01*
X0180949Y0178746D01*
X0181009Y0178706D01*
X0181066Y0178664D01*
X0181122Y0178618D01*
X0181174Y0178569D01*
X0181224Y0178518D01*
X0181272Y0178464D01*
X0181316Y0178407D01*
X0188536Y0171187D01*
X0188576Y0171145D01*
X0188612Y0171101D01*
X0188646Y0171054D01*
X0188676Y0171005D01*
X0188703Y0170954D01*
X0188727Y0170902D01*
X0188747Y0170848D01*
X0188764Y0170793D01*
X0188777Y0170737D01*
X0188786Y0170680D01*
X0188792Y0170623D01*
X0188794Y0170565D01*
X0188792Y0170507D01*
X0188786Y0170450D01*
X0188777Y0170393D01*
X0188764Y0170337D01*
X0188747Y0170282D01*
X0188727Y0170228D01*
X0188703Y0170176D01*
X0188676Y0170125D01*
X0188646Y0170076D01*
X0188612Y0170029D01*
X0188576Y0169985D01*
X0188536Y0169943D01*
X0188536Y0169942D02*
X0176120Y0157525D01*
X0176119Y0157526D02*
X0176069Y0157478D01*
X0176015Y0157433D01*
X0175959Y0157391D01*
X0175901Y0157352D01*
X0175841Y0157316D01*
X0175779Y0157284D01*
X0175715Y0157256D01*
X0175650Y0157231D01*
X0175584Y0157210D01*
X0175516Y0157192D01*
X0175448Y0157179D01*
X0175378Y0157169D01*
X0175309Y0157163D01*
X0175239Y0157161D01*
X0175169Y0157163D01*
X0175100Y0157169D01*
X0175030Y0157179D01*
X0174962Y0157192D01*
X0174894Y0157210D01*
X0174828Y0157231D01*
X0174763Y0157256D01*
X0174699Y0157284D01*
X0174637Y0157316D01*
X0174577Y0157352D01*
X0174519Y0157391D01*
X0174463Y0157433D01*
X0174409Y0157478D01*
X0174359Y0157526D01*
X0174359Y0157525D02*
X0167397Y0164488D01*
X0167340Y0164532D01*
X0167286Y0164580D01*
X0167235Y0164630D01*
X0167186Y0164682D01*
X0167140Y0164738D01*
X0167098Y0164795D01*
X0167058Y0164855D01*
X0167022Y0164917D01*
X0166989Y0164981D01*
X0166960Y0165047D01*
X0166934Y0165114D01*
X0166912Y0165182D01*
X0166894Y0165251D01*
X0166880Y0165322D01*
X0166869Y0165393D01*
X0166862Y0165464D01*
X0166859Y0165536D01*
X0166860Y0165608D01*
X0166865Y0165679D01*
X0166874Y0165750D01*
X0166886Y0165821D01*
X0166903Y0165891D01*
X0166923Y0165960D01*
X0166946Y0166028D01*
X0166974Y0166094D01*
X0167005Y0166159D01*
X0167039Y0166221D01*
X0167077Y0166282D01*
X0167118Y0166341D01*
X0169950Y0164718D02*
X0173847Y0160821D01*
X0173915Y0160746D01*
X0173985Y0160673D01*
X0174057Y0160603D01*
X0174133Y0160537D01*
X0174211Y0160473D01*
X0174291Y0160412D01*
X0174374Y0160355D01*
X0174459Y0160301D01*
X0174546Y0160250D01*
X0174635Y0160203D01*
X0174726Y0160159D01*
X0174818Y0160119D01*
X0174912Y0160082D01*
X0175007Y0160049D01*
X0175104Y0160020D01*
X0175201Y0159995D01*
X0175300Y0159973D01*
X0175399Y0159956D01*
X0175499Y0159942D01*
X0175599Y0159933D01*
X0175700Y0159927D01*
X0175800Y0159925D01*
X0175901Y0159927D01*
X0176002Y0159933D01*
X0176102Y0159943D01*
X0176202Y0159957D01*
X0176301Y0159975D01*
X0176399Y0159997D01*
X0176497Y0160023D01*
X0176593Y0160052D01*
X0176688Y0160085D01*
X0176782Y0160122D01*
X0176874Y0160162D01*
X0176965Y0160207D01*
X0177054Y0160254D01*
X0177141Y0160305D01*
X0177225Y0160360D01*
X0177308Y0160418D01*
X0177388Y0160478D01*
X0177466Y0160543D01*
X0185261Y0168338D01*
X0185327Y0168406D01*
X0185390Y0168478D01*
X0185450Y0168551D01*
X0185507Y0168627D01*
X0185562Y0168706D01*
X0185612Y0168786D01*
X0185660Y0168868D01*
X0185704Y0168953D01*
X0185745Y0169039D01*
X0185782Y0169126D01*
X0185816Y0169215D01*
X0185846Y0169305D01*
X0185873Y0169397D01*
X0185895Y0169489D01*
X0185914Y0169582D01*
X0185930Y0169676D01*
X0185941Y0169771D01*
X0185949Y0169865D01*
X0185953Y0169960D01*
X0185953Y0170056D01*
X0185949Y0170151D01*
X0185941Y0170245D01*
X0185930Y0170340D01*
X0185914Y0170434D01*
X0185895Y0170527D01*
X0185873Y0170619D01*
X0185846Y0170711D01*
X0185816Y0170801D01*
X0185782Y0170890D01*
X0185745Y0170977D01*
X0185704Y0171063D01*
X0185660Y0171148D01*
X0185612Y0171230D01*
X0185562Y0171310D01*
X0185507Y0171389D01*
X0185450Y0171465D01*
X0185390Y0171538D01*
X0185327Y0171610D01*
X0185261Y0171678D01*
X0181364Y0175576D01*
X0181365Y0175576D02*
X0181289Y0175639D01*
X0181210Y0175698D01*
X0181130Y0175755D01*
X0181047Y0175808D01*
X0180963Y0175858D01*
X0180877Y0175905D01*
X0180788Y0175949D01*
X0180699Y0175989D01*
X0180607Y0176026D01*
X0180515Y0176059D01*
X0180421Y0176089D01*
X0180326Y0176115D01*
X0180231Y0176137D01*
X0180134Y0176156D01*
X0180037Y0176171D01*
X0179939Y0176182D01*
X0179841Y0176190D01*
X0179743Y0176194D01*
X0179644Y0176194D01*
X0179546Y0176190D01*
X0179448Y0176182D01*
X0179350Y0176171D01*
X0179253Y0176156D01*
X0179157Y0176137D01*
X0179061Y0176115D01*
X0178966Y0176089D01*
X0178872Y0176059D01*
X0178780Y0176026D01*
X0178689Y0175989D01*
X0178599Y0175949D01*
X0178511Y0175905D01*
X0178424Y0175858D01*
X0178340Y0175808D01*
X0178257Y0175754D01*
X0178177Y0175698D01*
X0178099Y0175638D01*
X0178023Y0175576D01*
X0177949Y0175510D01*
X0177879Y0175442D01*
X0177810Y0175371D01*
X0177745Y0175298D01*
X0177745Y0175297D02*
X0170228Y0167781D01*
X0170228Y0167780D02*
X0170159Y0167720D01*
X0170092Y0167656D01*
X0170027Y0167590D01*
X0169966Y0167521D01*
X0169908Y0167449D01*
X0169852Y0167376D01*
X0169800Y0167299D01*
X0169751Y0167221D01*
X0169706Y0167141D01*
X0169664Y0167059D01*
X0169625Y0166975D01*
X0169590Y0166889D01*
X0169559Y0166802D01*
X0169532Y0166714D01*
X0169508Y0166625D01*
X0169488Y0166535D01*
X0169472Y0166444D01*
X0169460Y0166353D01*
X0169451Y0166261D01*
X0169447Y0166169D01*
X0169446Y0166076D01*
X0169450Y0165984D01*
X0169457Y0165892D01*
X0169468Y0165801D01*
X0169483Y0165709D01*
X0169502Y0165619D01*
X0169525Y0165530D01*
X0169551Y0165441D01*
X0169582Y0165354D01*
X0169616Y0165268D01*
X0169653Y0165184D01*
X0169694Y0165101D01*
X0169739Y0165021D01*
X0169787Y0164942D01*
X0169838Y0164865D01*
X0169892Y0164790D01*
X0169950Y0164718D01*
X0285416Y0219188D02*
X0297832Y0206771D01*
X0297833Y0206772D02*
X0297875Y0206732D01*
X0297919Y0206696D01*
X0297966Y0206662D01*
X0298015Y0206632D01*
X0298066Y0206605D01*
X0298118Y0206581D01*
X0298172Y0206561D01*
X0298227Y0206544D01*
X0298283Y0206531D01*
X0298340Y0206522D01*
X0298397Y0206516D01*
X0298455Y0206514D01*
X0298513Y0206516D01*
X0298570Y0206522D01*
X0298627Y0206531D01*
X0298683Y0206544D01*
X0298738Y0206561D01*
X0298792Y0206581D01*
X0298844Y0206605D01*
X0298895Y0206632D01*
X0298944Y0206662D01*
X0298991Y0206696D01*
X0299035Y0206732D01*
X0299077Y0206772D01*
X0299077Y0206771D02*
X0306298Y0213992D01*
X0306297Y0213991D02*
X0306354Y0214035D01*
X0306408Y0214083D01*
X0306459Y0214133D01*
X0306508Y0214185D01*
X0306554Y0214241D01*
X0306596Y0214298D01*
X0306636Y0214358D01*
X0306672Y0214420D01*
X0306705Y0214484D01*
X0306734Y0214550D01*
X0306760Y0214617D01*
X0306782Y0214685D01*
X0306800Y0214754D01*
X0306814Y0214825D01*
X0306825Y0214896D01*
X0306832Y0214967D01*
X0306835Y0215039D01*
X0306834Y0215111D01*
X0306829Y0215182D01*
X0306820Y0215253D01*
X0306808Y0215324D01*
X0306791Y0215394D01*
X0306771Y0215463D01*
X0306748Y0215531D01*
X0306720Y0215597D01*
X0306689Y0215662D01*
X0306655Y0215724D01*
X0306617Y0215785D01*
X0306576Y0215844D01*
X0306576Y0215845D02*
X0294231Y0228190D01*
X0294172Y0228231D01*
X0294111Y0228269D01*
X0294049Y0228303D01*
X0293984Y0228334D01*
X0293918Y0228362D01*
X0293850Y0228385D01*
X0293781Y0228405D01*
X0293711Y0228422D01*
X0293640Y0228434D01*
X0293569Y0228443D01*
X0293498Y0228448D01*
X0293426Y0228449D01*
X0293354Y0228446D01*
X0293283Y0228439D01*
X0293212Y0228428D01*
X0293141Y0228414D01*
X0293072Y0228396D01*
X0293004Y0228374D01*
X0292937Y0228348D01*
X0292871Y0228319D01*
X0292807Y0228286D01*
X0292745Y0228250D01*
X0292685Y0228210D01*
X0292628Y0228168D01*
X0292572Y0228122D01*
X0292520Y0228073D01*
X0292470Y0228022D01*
X0292422Y0227968D01*
X0292378Y0227911D01*
X0285416Y0220949D01*
X0285416Y0220948D02*
X0285368Y0220898D01*
X0285323Y0220844D01*
X0285281Y0220788D01*
X0285242Y0220730D01*
X0285206Y0220670D01*
X0285174Y0220608D01*
X0285146Y0220544D01*
X0285121Y0220479D01*
X0285100Y0220413D01*
X0285082Y0220345D01*
X0285069Y0220277D01*
X0285059Y0220207D01*
X0285053Y0220138D01*
X0285051Y0220068D01*
X0285053Y0219998D01*
X0285059Y0219929D01*
X0285069Y0219859D01*
X0285082Y0219791D01*
X0285100Y0219723D01*
X0285121Y0219657D01*
X0285146Y0219592D01*
X0285174Y0219528D01*
X0285206Y0219466D01*
X0285242Y0219406D01*
X0285281Y0219348D01*
X0285323Y0219292D01*
X0285368Y0219238D01*
X0285416Y0219188D01*
X0288433Y0217841D02*
X0296228Y0210046D01*
X0296228Y0210047D02*
X0296296Y0209981D01*
X0296368Y0209918D01*
X0296441Y0209858D01*
X0296517Y0209801D01*
X0296596Y0209746D01*
X0296676Y0209696D01*
X0296758Y0209648D01*
X0296843Y0209604D01*
X0296929Y0209563D01*
X0297016Y0209526D01*
X0297105Y0209492D01*
X0297195Y0209462D01*
X0297287Y0209435D01*
X0297379Y0209413D01*
X0297472Y0209394D01*
X0297566Y0209378D01*
X0297661Y0209367D01*
X0297755Y0209359D01*
X0297850Y0209355D01*
X0297946Y0209355D01*
X0298041Y0209359D01*
X0298135Y0209367D01*
X0298230Y0209378D01*
X0298324Y0209394D01*
X0298417Y0209413D01*
X0298509Y0209435D01*
X0298601Y0209462D01*
X0298691Y0209492D01*
X0298780Y0209526D01*
X0298867Y0209563D01*
X0298953Y0209604D01*
X0299038Y0209648D01*
X0299120Y0209696D01*
X0299200Y0209746D01*
X0299279Y0209801D01*
X0299355Y0209858D01*
X0299428Y0209918D01*
X0299500Y0209981D01*
X0299568Y0210047D01*
X0299568Y0210046D02*
X0303466Y0213944D01*
X0303466Y0213943D02*
X0303529Y0214019D01*
X0303588Y0214098D01*
X0303645Y0214178D01*
X0303698Y0214261D01*
X0303748Y0214345D01*
X0303795Y0214431D01*
X0303839Y0214520D01*
X0303879Y0214609D01*
X0303916Y0214701D01*
X0303949Y0214793D01*
X0303979Y0214887D01*
X0304005Y0214982D01*
X0304027Y0215077D01*
X0304046Y0215174D01*
X0304061Y0215271D01*
X0304072Y0215369D01*
X0304080Y0215467D01*
X0304084Y0215565D01*
X0304084Y0215664D01*
X0304080Y0215762D01*
X0304072Y0215860D01*
X0304061Y0215958D01*
X0304046Y0216055D01*
X0304027Y0216151D01*
X0304005Y0216247D01*
X0303979Y0216342D01*
X0303949Y0216436D01*
X0303916Y0216528D01*
X0303879Y0216619D01*
X0303839Y0216709D01*
X0303795Y0216797D01*
X0303748Y0216884D01*
X0303698Y0216968D01*
X0303644Y0217051D01*
X0303588Y0217131D01*
X0303528Y0217209D01*
X0303466Y0217285D01*
X0303400Y0217359D01*
X0303332Y0217429D01*
X0303261Y0217498D01*
X0303188Y0217563D01*
X0303187Y0217563D02*
X0295671Y0225079D01*
X0295611Y0225148D01*
X0295547Y0225215D01*
X0295481Y0225280D01*
X0295412Y0225341D01*
X0295340Y0225399D01*
X0295267Y0225455D01*
X0295190Y0225507D01*
X0295112Y0225556D01*
X0295032Y0225601D01*
X0294950Y0225643D01*
X0294866Y0225682D01*
X0294780Y0225717D01*
X0294693Y0225748D01*
X0294605Y0225775D01*
X0294516Y0225799D01*
X0294426Y0225819D01*
X0294335Y0225835D01*
X0294244Y0225847D01*
X0294152Y0225856D01*
X0294060Y0225860D01*
X0293967Y0225861D01*
X0293875Y0225857D01*
X0293783Y0225850D01*
X0293692Y0225839D01*
X0293600Y0225824D01*
X0293510Y0225805D01*
X0293421Y0225782D01*
X0293332Y0225756D01*
X0293245Y0225725D01*
X0293159Y0225691D01*
X0293075Y0225654D01*
X0292992Y0225613D01*
X0292912Y0225568D01*
X0292833Y0225520D01*
X0292756Y0225469D01*
X0292681Y0225415D01*
X0292609Y0225357D01*
X0292609Y0225358D02*
X0288711Y0221460D01*
X0288712Y0221461D02*
X0288637Y0221393D01*
X0288564Y0221323D01*
X0288494Y0221251D01*
X0288428Y0221175D01*
X0288364Y0221097D01*
X0288303Y0221017D01*
X0288246Y0220934D01*
X0288192Y0220849D01*
X0288141Y0220762D01*
X0288094Y0220673D01*
X0288050Y0220582D01*
X0288010Y0220490D01*
X0287973Y0220396D01*
X0287940Y0220301D01*
X0287911Y0220204D01*
X0287886Y0220107D01*
X0287864Y0220008D01*
X0287847Y0219909D01*
X0287833Y0219809D01*
X0287824Y0219709D01*
X0287818Y0219608D01*
X0287816Y0219508D01*
X0287818Y0219407D01*
X0287824Y0219306D01*
X0287834Y0219206D01*
X0287848Y0219106D01*
X0287866Y0219007D01*
X0287888Y0218909D01*
X0287914Y0218811D01*
X0287943Y0218715D01*
X0287976Y0218620D01*
X0288013Y0218526D01*
X0288053Y0218434D01*
X0288098Y0218343D01*
X0288145Y0218254D01*
X0288196Y0218167D01*
X0288251Y0218083D01*
X0288309Y0218000D01*
X0288369Y0217920D01*
X0288434Y0217842D01*
D17*
X0123875Y0167459D02*
X0095590Y0195743D01*
M02*
