G75*
%MOIN*%
%OFA0B0*%
%FSLAX25Y25*%
%IPPOS*%
%LPD*%
%AMOC8*
5,1,8,0,0,1.08239X$1,22.5*
%
%ADD10C,0.01100*%
D10*
X0168847Y0093570D02*
X0171600Y0098337D01*
X0173189Y0097420D02*
X0170011Y0099255D01*
X0174815Y0095422D02*
X0176068Y0095758D01*
X0177657Y0094840D01*
X0177993Y0093587D01*
X0176158Y0090409D01*
X0174905Y0090073D01*
X0173316Y0090990D01*
X0172980Y0092244D01*
X0177784Y0088410D02*
X0180962Y0086576D01*
X0183715Y0091343D01*
X0180537Y0093178D01*
X0180750Y0089877D02*
X0182339Y0088959D01*
X0183047Y0085372D02*
X0186225Y0083537D01*
X0188978Y0088304D01*
X0191063Y0087100D02*
X0194241Y0085266D01*
X0191488Y0080498D01*
X0188310Y0082333D01*
X0191276Y0083799D02*
X0192865Y0082882D01*
X0194491Y0080884D02*
X0194032Y0080089D01*
X0194368Y0078836D01*
X0195957Y0077918D01*
X0197210Y0078254D01*
X0197333Y0080302D02*
X0195744Y0081220D01*
X0194491Y0080884D01*
X0195867Y0083267D02*
X0197120Y0083603D01*
X0198709Y0082686D01*
X0199045Y0081432D01*
X0198586Y0080638D01*
X0197333Y0080302D01*
X0228937Y0093617D02*
X0231689Y0098384D01*
X0233278Y0097467D02*
X0230100Y0099302D01*
X0234905Y0095468D02*
X0233987Y0093879D01*
X0234323Y0092626D01*
X0236706Y0091250D01*
X0235117Y0092167D02*
X0232611Y0091496D01*
X0235789Y0089661D02*
X0238541Y0094428D01*
X0236158Y0095804D01*
X0234905Y0095468D01*
X0239709Y0091635D02*
X0237874Y0088457D01*
X0239250Y0090841D02*
X0242428Y0089006D01*
X0242887Y0089800D02*
X0242215Y0092307D01*
X0239709Y0091635D01*
X0242887Y0089800D02*
X0241052Y0086622D01*
X0244726Y0084501D02*
X0247478Y0089268D01*
X0249067Y0088351D02*
X0245889Y0090186D01*
X0250694Y0086353D02*
X0251947Y0086688D01*
X0253536Y0085771D01*
X0253872Y0084518D01*
X0253413Y0083723D01*
X0252160Y0083387D01*
X0250571Y0084305D01*
X0249317Y0083969D01*
X0248859Y0083174D01*
X0249194Y0081921D01*
X0250783Y0081004D01*
X0252037Y0081340D01*
X0286181Y0137335D02*
X0286181Y0142839D01*
X0289850Y0142839D02*
X0286181Y0137335D01*
X0289850Y0137335D02*
X0289850Y0142839D01*
X0292258Y0142839D02*
X0292258Y0137335D01*
X0294093Y0139170D01*
X0295928Y0137335D01*
X0295928Y0142839D01*
X0298335Y0141922D02*
X0299252Y0142839D01*
X0301087Y0142839D01*
X0302005Y0141922D01*
X0302005Y0138252D01*
X0301087Y0137335D01*
X0299252Y0137335D01*
X0298335Y0138252D01*
X0298335Y0141922D01*
X0304412Y0141922D02*
X0304412Y0138252D01*
X0305330Y0137335D01*
X0308082Y0137335D01*
X0308082Y0142839D01*
X0305330Y0142839D01*
X0304412Y0141922D01*
X0322708Y0174756D02*
X0322708Y0180261D01*
X0324543Y0180261D02*
X0320873Y0180261D01*
X0326950Y0180261D02*
X0330620Y0180261D01*
X0330620Y0174756D01*
X0333028Y0174756D02*
X0336697Y0174756D01*
X0336697Y0180261D01*
X0333028Y0180261D01*
X0334863Y0177508D02*
X0336697Y0177508D01*
X0339105Y0174756D02*
X0342775Y0174756D01*
X0342775Y0180261D01*
X0330620Y0177508D02*
X0328785Y0177508D01*
X0300413Y0211596D02*
X0298578Y0211596D01*
X0297660Y0212514D01*
X0297660Y0217101D01*
X0295253Y0217101D02*
X0292500Y0217101D01*
X0291583Y0216184D01*
X0291583Y0214349D01*
X0292500Y0213431D01*
X0295253Y0213431D01*
X0295253Y0211596D02*
X0295253Y0217101D01*
X0301330Y0217101D02*
X0301330Y0212514D01*
X0300413Y0211596D01*
X0270813Y0180184D02*
X0268061Y0180184D01*
X0267144Y0179267D01*
X0267144Y0177432D01*
X0268061Y0176514D01*
X0270813Y0176514D01*
X0270813Y0174680D02*
X0270813Y0180184D01*
X0268978Y0176514D02*
X0267144Y0174680D01*
X0264736Y0174680D02*
X0262901Y0174680D01*
X0263819Y0174680D02*
X0263819Y0180184D01*
X0264736Y0180184D02*
X0262901Y0180184D01*
X0260685Y0179267D02*
X0260685Y0175597D01*
X0259767Y0174680D01*
X0257932Y0174680D01*
X0257015Y0175597D01*
X0257015Y0177432D01*
X0258850Y0177432D01*
X0260685Y0179267D02*
X0259767Y0180184D01*
X0257932Y0180184D01*
X0257015Y0179267D01*
X0254608Y0180184D02*
X0254608Y0174680D01*
X0254608Y0177432D02*
X0250938Y0177432D01*
X0250938Y0180184D02*
X0250938Y0174680D01*
X0246695Y0174680D02*
X0246695Y0180184D01*
X0244861Y0180184D02*
X0248530Y0180184D01*
X0155803Y0198630D02*
X0153968Y0196795D01*
X0153968Y0194042D01*
X0153968Y0196795D02*
X0152133Y0198630D01*
X0152133Y0199547D01*
X0155803Y0199547D02*
X0155803Y0198630D01*
X0098074Y0218265D02*
X0094405Y0223769D01*
X0098074Y0223769D02*
X0094405Y0218265D01*
X0067269Y0160292D02*
X0065434Y0158457D01*
X0065434Y0154788D01*
X0065434Y0157540D02*
X0069104Y0157540D01*
X0069104Y0158457D02*
X0067269Y0160292D01*
X0069104Y0158457D02*
X0069104Y0154788D01*
X0121723Y0133931D02*
X0121723Y0133014D01*
X0122641Y0132096D01*
X0125393Y0132096D01*
X0125393Y0129344D02*
X0122641Y0129344D01*
X0121723Y0130261D01*
X0121723Y0131179D01*
X0122641Y0132096D01*
X0121723Y0133931D02*
X0122641Y0134849D01*
X0125393Y0134849D01*
X0125393Y0129344D01*
M02*
